<?xml version="1.0" encoding="UTF-8"?>
<svg width="110px" height="110px" viewBox="0 0 110 110" version="1.1" xmlns="http://www.w3.org/2000/svg" xmlns:xlink="http://www.w3.org/1999/xlink">
    <!-- Generator: Sketch 51.3 (57544) - http://www.bohemiancoding.com/sketch -->
    <title>Logo BRRSD</title>
    <desc>Created with Sketch.</desc>
    <defs>
        <polygon id="path-1" points="0 0 110 0 110 114.11215 0 114.11215"></polygon>
    </defs>
    <g id="Homepage" stroke="none" stroke-width="1" fill="none" fill-rule="evenodd">
        <g id="Desktop" transform="translate(-245.000000, -183.000000)">
            <g id="Mission-Statement" transform="translate(75.000000, 153.000000)">
                <g id="Logos" transform="translate(7.000000, 30.000000)">
                    <g id="Logo-BRRSD" transform="translate(163.000000, 0.000000)">
                        <mask id="mask-2" fill="white">
                            <use xlink:href="#path-1"></use>
                        </mask>
                        <g id="Clip-2"></g>
                        <path d="M67.819255,108.475041 C48.7892424,113.073388 28.6645715,107.104445 15.0960485,92.8376674 C10.1296449,87.6164791 6.50126887,81.8668544 3.66114462,74.7197225 C2.99896707,73.0523845 1.36345618,67.3803271 1.03013664,65.5921051 C-0.527657265,57.2380024 -0.321995081,49.4989698 1.66986261,41.5260839 C2.76336945,37.1513726 4.18731743,33.5300286 6.56545735,29.0789012 C8.69159273,25.1006611 10.6648847,22.1892237 13.3324484,19.0963162 C18.889789,12.6536223 25.4948697,7.84329622 33.6066525,4.33046015 C35.2859152,3.60299655 40.9157916,1.78167524 42.6449946,1.40563916 C46.1801103,0.637161296 48.9202099,0.25536883 52.1179762,0.0856992789 C56.093776,-0.126279727 59.4949018,0.0497218509 63.4712772,0.672563085 C69.7975842,1.66309363 75.1024884,3.43937121 80.8300867,6.485652 C83.5414023,7.92820295 85.4208581,9.10423312 87.7398468,10.8091315 C96.2171874,17.0417172 102.686263,25.6256437 106.511378,35.7163049 C107.257893,37.6842702 108.459916,41.8700281 108.881027,43.9640583 C111.438924,56.6938797 109.590411,69.4709035 103.551512,80.8072472 C97.4798006,92.2036012 87.9984717,100.810122 75.9805465,105.832283 C74.0977804,106.618749 69.9747501,107.9538 67.819255,108.475041 Z M73.7942524,105.3073 C91.138382,98.7671793 103.697592,84.1558823 107.576101,66.0064211 C110.369164,52.9353898 107.982676,38.8293598 101.032331,27.3221953 C96.0506715,19.0750175 89.2094175,12.5197862 80.7484839,7.88603741 C69.8757329,1.93177307 57.6655302,-0.0324505947 45.2417496,2.17354138 C43.5439212,2.47532005 42.7445875,2.68341349 39.4996153,3.66991457 C35.6288774,4.84709601 34.5067304,5.26644892 31.9022038,6.50882146 C20.264804,12.0605703 11.0927599,21.5147189 5.86039154,33.3518683 C1.4477935,43.3333021 0.207056138,54.2715915 2.25058124,65.1626785 C2.63959795,67.2358418 4.02439959,72.0585441 4.84287464,74.1895591 C10.6981303,89.4367931 22.9611518,101.045126 38.5950759,106.140393 C42.132926,107.293398 46.9784365,108.2468 50.795636,108.540807 C58.6685111,109.146667 66.5516045,108.038706 73.7942524,105.3073 Z M69.7515297,104.726049 C69.633515,104.663016 69.5126219,104.326843 69.3112773,103.504399 C68.9818436,102.154814 69.069635,102.199714 67.616903,102.634321 L66.6313364,102.92876 L66.9237826,104.081189 C67.0845416,104.714824 67.1975191,105.302263 67.1750675,105.386594 C67.1323232,105.548493 66.4508603,105.795154 66.0039876,105.810984 L65.7391741,105.820482 L64.9689124,103.053674 C64.1481346,100.106835 64.0728643,99.7499387 64.2448491,99.623442 C64.3055835,99.5789739 64.6181785,99.4919086 64.9408479,99.4294518 L65.5271795,99.3164826 L65.8869803,100.387315 C66.1214266,101.08614 66.2985926,101.47225 66.3963145,101.499305 C66.478493,101.522331 66.9979016,101.403173 67.5505557,101.235087 C68.7216356,100.879198 68.6732784,100.990584 68.2786488,99.5474577 L68.0357112,98.6621252 L68.7587671,98.4412238 L69.4811033,98.2203224 L70.0894547,100.348027 C70.4239256,101.518445 70.7961036,102.903 70.9169967,103.424673 L71.1367631,104.373038 L70.5256773,104.592788 C70.1461593,104.729359 69.8527057,104.780015 69.7515297,104.726049 Z M74.6892931,102.774201 C73.9060785,102.711313 72.8485518,102.100272 72.3792275,101.439151 C71.3768222,100.027541 71.4443209,98.1977285 72.5399865,97.0976827 C74.0960534,95.5343915 76.3751761,95.4247323 77.7126279,96.848575 C78.2045477,97.3719746 78.2995351,97.5389099 78.5233313,98.2719859 C78.8314648,99.2838151 78.7740405,100.028692 78.3227063,100.856173 C77.8677741,101.689266 77.3067725,102.127759 76.2093798,102.505522 C75.4684779,102.760674 75.1738729,102.813057 74.6892931,102.774201 Z M76.6568282,100.568353 C77.2297752,99.8588783 77.1262964,98.6857264 76.4264117,97.9561041 C75.9018221,97.4085277 75.3582349,97.2702304 74.6206431,97.495737 C73.5777962,97.8143531 73.1280451,98.694217 73.4586301,99.768503 C73.9331355,101.312079 75.69947,101.753881 76.6568282,100.568353 Z M61.4519307,106.714881 C60.3454711,106.813315 59.1418651,106.35007 58.4632807,105.564755 C57.9556736,104.976164 57.620627,103.869354 57.6763242,102.960852 C57.7988004,100.967559 59.7051694,99.6245933 61.914059,99.9758769 C62.2535671,100.029843 62.7005837,100.183251 62.9068216,100.317087 L63.281878,100.560006 L63.0395162,100.93043 C62.9068216,101.133918 62.7011594,101.397561 62.5835765,101.516143 C62.3891401,101.711716 62.3340186,101.714594 62.0040092,101.54881 C60.6692919,100.879198 59.2346938,101.968739 59.4145942,103.515768 C59.5792391,104.928386 61.0296684,105.675421 62.1591554,104.928961 C62.3676959,104.79124 62.6015665,104.648481 62.6781321,104.612504 C62.8400425,104.535512 63.7906365,105.176918 63.7917878,105.363425 C63.7929392,105.595119 63.019943,106.226883 62.4599489,106.451814 C62.1564209,106.574281 61.70264,106.692431 61.4519307,106.714881 Z M82.6515427,98.6412583 C80.853114,98.8279092 79.0602981,97.1313576 79.0102138,95.1964915 C78.963008,93.3773288 80.8272083,91.6678253 82.8757706,91.6515635 C83.3204845,91.6482536 83.6578338,91.743234 84.1766667,92.0192529 C85.0757371,92.4970331 85.59457,93.1463537 85.9122022,94.1891235 C86.4091592,95.8237939 85.6873986,97.350676 83.9957588,98.2398941 C83.4127375,98.5468535 83.3311346,98.5710303 82.6515427,98.6412583 Z M83.7849155,96.6260906 C84.4938671,96.0003711 84.6382193,95.064958 84.1458677,94.2858308 C83.5864493,93.4004983 82.8387831,93.0653326 81.9965612,93.3223553 C80.9970343,93.6270122 80.5455562,94.3639738 80.7581265,95.3421281 C80.9694016,96.316253 81.5709887,96.926718 82.4300493,97.0386797 C83.0326438,97.1173983 83.3311346,97.0263035 83.7849155,96.6260906 Z M53.6020829,107.042563 C52.5344817,106.942546 51.522002,106.461888 51.5494908,106.068439 C51.5607166,105.908699 52.1690679,105.262256 52.3636483,105.202678 C52.4215042,105.184689 52.7312208,105.31061 53.0528828,105.481575 C53.7324747,105.8425 54.2671389,105.844659 54.565054,105.487187 C54.6905525,105.336514 54.7269644,105.155475 54.6702598,104.968249 C54.5780068,104.668053 54.2166228,104.447727 53.1742077,104.058739 C52.4338814,103.782145 51.9661403,103.288535 51.8676987,102.679797 C51.7597585,102.013638 51.8727359,101.559459 52.2640554,101.084989 C52.5586603,100.727949 52.7087693,100.639732 53.343458,100.449196 C54.245263,100.17879 55.1459165,100.282836 55.9199202,100.745938 C56.4961773,101.090602 56.4945942,101.122693 55.8564513,101.7759 L55.4831219,102.157548 L55.1880852,101.936071 C54.5628952,101.466062 53.6566287,101.544781 53.4997555,102.082283 C53.3811652,102.491419 53.5560284,102.646122 54.5932624,103.047486 C55.8514141,103.534188 56.3737011,104.097019 56.3551353,104.944072 C56.3427582,105.479272 56.0042575,106.226451 55.6338065,106.533267 C55.1931224,106.898654 54.3425531,107.11236 53.6020829,107.042563 Z M88.7529022,94.2475508 C88.5612003,94.1216298 84.5792119,89.8267884 84.5426561,89.7066238 C84.5072517,89.5907765 85.3365208,88.8020073 85.5670812,88.7317794 C85.704813,88.6901895 86.1534127,89.1163061 87.3434901,90.4182573 C88.2188137,91.3761204 88.9908025,92.1755388 89.0587329,92.1946788 C89.1262316,92.2136749 89.550077,91.8888707 89.9998281,91.472252 C90.4495792,91.0557773 90.8807646,90.7319805 90.9589133,90.7521278 C91.1697567,90.8078209 91.7994082,91.5896824 91.7336366,91.7140204 C91.6718948,91.8302994 90.1235996,93.2953003 89.373055,93.9479308 C88.9913782,94.2796427 88.8822866,94.3324576 88.7529022,94.2475508 Z M45.7083394,106.108301 C44.7200383,105.919492 43.8824218,105.723775 43.8470174,105.673838 C43.7733302,105.570367 44.8156014,99.8679447 44.9629759,99.5683246 C45.0461618,99.3985112 45.1423006,99.39074 45.7195652,99.5064435 C46.0828201,99.5795496 46.4004523,99.7043193 46.4252066,99.7847648 C46.4493853,99.8644908 46.2789836,100.967559 46.0462644,102.235116 C45.8129695,103.503392 45.6296149,104.565302 45.6386819,104.595091 C45.6481807,104.62488 46.1693163,104.752384 46.7979604,104.878305 C47.4258849,105.004226 47.9526334,105.148136 47.9678889,105.198792 C48.0414322,105.439409 47.8098644,106.368634 47.6665197,106.407922 C47.5777208,106.432098 46.6962087,106.297255 45.7083394,106.108301 Z M41.3166098,105.17404 C40.5811768,104.904209 40.6121197,104.95429 40.5210181,103.904756 C40.4923779,103.578081 40.4507849,103.553328 39.3663451,103.21327 C38.7479193,103.01928 38.2116721,102.869757 38.1745406,102.881558 C38.1374092,102.892783 37.9395187,103.113253 37.7342883,103.371283 C37.36614,103.834384 37.3564973,103.839565 36.9871977,103.763005 C36.2579533,103.611324 35.8352592,103.387544 35.8959936,103.185207 C35.9515469,102.999132 40.1252371,98.1089362 40.2646959,98.0661951 C40.4681993,98.0044578 41.5644406,98.4536 41.650505,98.6340628 C41.7044751,98.7476075 41.8540084,100.119787 41.9816657,101.682502 C42.2751193,105.257219 42.2784295,105.352776 42.1250104,105.391631 C42.055353,105.40962 41.6915223,105.311761 41.3166098,105.17404 Z M40.4490579,101.143992 C40.428909,100.670673 40.3709091,100.261394 40.3198174,100.233907 C40.2180657,100.179941 39.0717401,101.57457 39.1116061,101.70452 C39.1516159,101.836054 40.1921601,102.146899 40.3451474,102.073217 C40.4327949,102.031052 40.4722291,101.677465 40.4490579,101.143992 Z M64.5603225,97.631156 C57.10568,99.2546015 49.733072,98.9977226 42.5674216,96.866132 C30.9110243,93.3981957 21.3138395,85.3296099 15.877536,74.4274418 C14.4905755,71.6463866 12.9631488,67.2813173 12.3093187,64.2323022 C10.4563441,55.592107 11.1983974,46.9024068 14.4967641,38.620259 C15.286599,36.6381905 17.572486,32.3388879 18.7745088,30.5759939 C23.7925797,23.2168829 30.5928164,17.7332034 38.7856265,14.4406931 C41.6791452,13.2776148 46.1530533,12.1033115 49.234388,11.6973422 C63.1840122,9.86134211 76.9908674,14.7424717 86.7014614,24.9437995 C90.2230486,28.6427108 92.8557836,32.6323198 95.1377847,37.7258601 C96.0040413,39.6602945 97.5685995,44.7803142 97.9442316,46.9124805 C98.8892127,52.2731173 98.9403044,56.7973508 98.1150651,61.9280199 C97.3414932,66.7327334 96.0686616,70.5991557 93.8429333,74.9007609 C92.1170404,78.2375954 90.6666111,80.4451704 88.5106842,83.0164052 C84.0727562,88.3101239 78.8403878,92.2210143 72.3612374,95.0891348 C70.8214336,95.7709791 66.2243297,97.2685035 64.5603225,97.631156 Z M70.4896972,94.4662936 C76.178437,92.2171287 81.3276194,88.7948119 85.4146696,84.5442946 C97.7653386,71.7020797 100.889993,52.869623 93.3264032,36.8608188 C85.9818597,21.3156917 69.8381697,11.7035303 52.6913549,12.6671498 C48.7144038,12.8902098 46.1373659,13.3882813 41.9271199,14.7476525 C38.6119146,15.8173334 37.4621349,16.2951136 34.9166156,17.6595216 C28.9450723,20.8603614 23.8864158,25.4120817 20.0011419,31.0808292 C18.6497298,33.052824 16.4807062,37.1318008 15.6014967,39.355062 C12.7101368,46.666251 11.9073491,54.3110227 13.2014809,62.2102268 C13.533793,64.2379147 15.0235126,69.3146176 15.8758089,71.3243167 C19.2546271,79.2894315 24.5655759,85.6967236 31.6828692,90.3940805 C33.4319332,91.5486681 36.69763,93.2976028 38.5241232,94.05759 C46.7275833,97.4719919 55.5686106,98.289399 64.0773258,96.4202997 C65.6497996,96.0746285 69.0122108,95.0502792 70.4896972,94.4662936 Z M64.3696281,93.6494621 C64.3241492,93.6095991 64.2802535,93.0001415 64.2724818,92.2952717 C64.2645662,91.590258 64.2229732,90.9736049 64.1802289,90.9246756 C64.1374845,90.8753146 63.576483,90.6380074 62.9327273,90.3968148 C62.2895472,90.1563416 61.7492702,89.915149 61.7330072,89.8611828 C61.7167442,89.8072167 62.2632098,89.5665996 62.9474071,89.3265582 C63.6316045,89.0859412 64.2190874,88.8302136 64.2527647,88.7582588 C64.2864421,88.6857283 64.3371021,88.0718095 64.3645909,87.3932752 C64.3938067,86.6951692 64.4703723,86.1622715 64.5411811,86.1638545 C64.6102629,86.1655814 64.9903565,86.5945763 65.3849862,87.1166807 C65.7801914,87.638929 66.1720866,88.1118164 66.2564239,88.1673655 C66.366523,88.239896 66.7510781,88.1634799 67.6292801,87.8948005 C68.3005247,87.6901609 68.8891589,87.5569005 68.9380918,87.5996417 C68.9868808,87.6429585 68.6704,88.1764318 68.2353288,88.7863212 C67.7995379,89.3956349 67.4521142,89.9224884 67.4623325,89.9561632 C67.472407,89.9904137 67.7770863,90.4772603 68.1397656,91.038796 C68.5017253,91.6004756 68.8036702,92.132222 68.8110102,92.2204386 C68.8210846,92.3357103 68.4455964,92.2687923 67.5004714,91.987161 L66.1765481,91.5925606 L65.415929,92.5403499 C64.4197123,93.7809956 64.4647594,93.7332175 64.3696281,93.6494621 Z M56.3332595,92.4115507 C55.8541486,92.2148262 55.4505959,92.0163747 55.4364917,91.9703236 C55.3442388,91.6695523 57.5846469,88.2135605 58.9372104,86.5686725 C59.6405492,85.7141366 61.449628,83.7645918 61.7155928,83.5757822 C61.9264361,83.4256844 61.5666353,83.3396264 61.0718371,83.4217988 C60.3702254,83.5386535 59.3447928,84.106953 58.6713895,84.752388 C58.3806704,85.0311411 57.3710691,86.1953707 56.4276712,87.339309 C54.4948209,89.6834543 53.7606831,90.417106 52.5710375,91.191772 C49.7201192,93.0479195 46.6045314,93.4459737 43.0953214,92.4009014 C42.1784049,92.1277608 40.7790673,91.4757059 40.9786848,91.414976 C41.0264664,91.4002972 41.5166591,91.4262009 42.0681619,91.4728277 C43.7311616,91.6128518 44.426009,91.531255 46.2188249,90.987708 C48.477223,90.3029856 48.9544629,90.0033656 52.1375494,87.2719593 C55.3757573,84.4932066 57.9787009,83.0579951 60.6789345,82.5645287 C61.2861345,82.4531426 62.1152596,82.363199 62.521259,82.3643503 C63.3195852,82.3666528 63.3880913,82.3413247 64.521464,81.6306986 C65.5103408,81.0107355 67.5381786,80.2821206 69.0363894,80.0084044 C71.1435273,79.6238776 72.4916293,79.6451763 76.5765207,80.1298642 C80.558509,80.6026076 83.5746479,79.8262147 86.0977156,77.6810965 C86.4934965,77.3443478 86.8471088,77.0851664 86.8842403,77.104882 C87.0208207,77.1774125 86.2286831,78.5215292 85.5839199,79.3113057 C83.0844551,82.3728409 79.6994484,83.7421419 75.6027556,83.349844 C74.2985493,83.2249304 73.3147098,82.9889184 70.9191555,82.226053 C69.8234899,81.8775037 68.6642114,81.5734225 68.3426933,81.5515482 C67.4128239,81.4862132 65.4850108,82.0130667 65.574961,82.3075059 C65.5907923,82.3581622 66.1945381,82.5268243 66.9170183,82.6825346 C68.6355713,83.051807 70.9062027,83.7264557 72.2718629,84.2728809 C73.9139941,84.9305483 75.2643988,85.5713782 75.3081506,85.7141366 C75.3649991,85.9013632 74.5778987,87.2381405 74.3738197,87.3005973 C74.2776809,87.329811 73.5164861,87.0166634 72.6821798,86.6040743 C69.5097435,85.036178 67.3358265,84.1502698 65.4085891,83.6386708 C64.2740649,83.3374677 63.8198523,83.3543052 63.3240467,83.7152307 C61.8752005,84.7686498 58.8338756,89.2371903 57.7572074,91.8944831 C57.5761556,92.3413228 57.3776895,92.7208127 57.3159476,92.7376501 C57.2546376,92.7550632 56.8122264,92.6084192 56.3332595,92.4115507 Z M42.9991826,90.0545975 C41.7062022,90.2118908 41.3187686,90.2360676 40.4856137,90.2103078 C38.7411551,90.155766 36.8657289,89.66489 35.1409874,88.8116493 C34.211118,88.3512821 32.8494876,87.3978803 32.9236065,87.2584318 C32.9456264,87.2174175 33.3301815,87.3067854 33.7776299,87.4568833 C35.8987281,88.1667899 37.8056728,88.10606 41.843934,87.1994288 C44.8061027,86.5338464 45.8899669,86.322443 47.1161683,86.169467 C47.8036758,86.0835529 48.5559475,85.9851186 48.7875153,85.9497168 C49.4773256,85.8452384 49.1045719,85.7181661 48.1431839,85.7299667 C46.4431967,85.7512653 44.9111645,85.2891713 43.7098613,84.3931894 C43.2719117,84.0659387 39.1375117,80.0101313 39.0926086,79.8627677 C39.0071199,79.5822877 41.1388681,80.4198422 43.63272,81.6453774 C48.4012331,83.988947 48.9122943,84.2020773 50.3717906,84.4510411 C51.0548366,84.5680397 52.8391611,84.6303526 53.594743,84.5634346 C54.0698241,84.5218447 54.0872384,84.6556807 53.638063,84.8883827 C53.4368623,84.9924294 52.1319365,85.7495384 50.73778,86.5708312 C49.3440553,87.3922678 47.808713,88.2679584 47.3258602,88.5164905 C46.4870924,88.9482196 43.5704025,89.9848013 42.9991826,90.0545975 Z M80.8401611,78.1511056 C80.3623456,78.2128429 78.5098028,78.3843833 76.7237512,78.5316029 C74.9376996,78.6795421 73.2634741,78.819998 73.0032661,78.8453261 C72.7434899,78.8706542 72.5181106,78.8480604 72.5022794,78.7952455 C72.4865921,78.7424306 72.8817974,78.4292831 73.3804814,78.0992981 C75.4402695,76.7361853 76.1654841,75.895177 77.7087421,73.0782883 C79.418372,69.959477 81.6918818,66.311078 81.8166607,66.4870796 C81.9166854,66.6275354 81.080796,71.5020452 80.786191,72.4976126 C80.3285243,74.0440664 79.3328833,75.3735043 77.8543895,76.4118129 C77.2684897,76.8238264 76.9976316,77.1307858 77.3040381,77.036381 C77.378157,77.0137872 77.8847567,76.7580596 78.4289195,76.4690889 C79.6454783,75.8220709 81.2893366,75.0907217 83.7145384,74.1154456 C87.9034842,72.4317019 89.6214615,71.2366757 90.874576,69.1347304 C91.0523177,68.8368373 91.2316424,68.6114747 91.2726597,68.633349 C91.4357215,68.7199826 90.8375885,70.4007042 90.2562942,71.4935545 C88.2936523,75.1789383 84.8254596,77.6310159 80.8401611,78.1511056 Z M42.5169055,85.8502752 C42.0075714,85.8878357 40.5076335,86.0491585 39.1835662,86.2088982 C36.4964293,86.5332707 35.6462918,86.5388832 34.0256047,86.2448757 C32.0528884,85.8862527 29.2486003,84.6995732 27.5979778,83.523543 C26.2521786,82.5651043 24.6690547,80.9269801 24.1405791,79.9459476 C23.9173587,79.5311998 24.1225891,79.6076158 24.8882454,80.2236933 C25.7095988,80.8848145 26.9319144,81.5138439 28.1417089,81.8983706 C28.6796832,82.0697671 30.6816153,82.4896956 32.590287,82.8314812 C35.3090864,83.3189034 36.3861863,83.5690185 37.5661893,83.9866445 C38.3948827,84.2802203 39.2976951,84.5668884 39.5727269,84.6247401 C40.0466566,84.72375 40.0184482,84.6989975 39.044827,84.1514211 C37.6983082,83.3941682 37.1007509,82.9314984 36.1726085,81.9270087 C35.3973096,81.0883029 34.4583732,79.6648919 34.133545,78.8346768 L33.9558033,78.3815051 L36.1484299,77.6474216 L36.3844593,77.889046 C36.5144194,78.0223064 37.2114256,78.9408821 37.9327544,79.930837 C40.1432271,82.962439 41.1721138,84.0401789 42.8411581,85.0705724 C43.2899018,85.3471669 43.6682684,85.6085069 43.6822286,85.6506725 C43.7154742,85.7512653 43.6137225,85.7686784 42.5169055,85.8502752 Z M81.3984282,73.8866291 C81.384324,73.8400024 81.5496885,73.4020851 81.765569,72.9135117 C82.5351111,71.172492 82.752143,69.7890879 82.8629617,65.9131676 C82.8989418,64.6605775 82.9550707,63.5644172 82.9883163,63.4767762 C83.0299093,63.3659657 83.3969062,63.2102554 84.1840066,62.9696384 L85.3202578,62.622816 L85.4415827,63.2738635 C85.6181729,64.2216529 85.6137114,65.6849268 85.4315083,66.7524491 C85.256645,67.7760788 84.7035591,69.3894506 84.2397038,70.2275808 C83.9315703,70.7852309 83.8860915,71.0506004 84.1452921,70.7796184 C84.2273267,70.6935604 84.5882789,70.1713121 84.9475041,69.6188427 C85.804262,68.2994785 86.6217296,67.3786002 89.05312,64.9934407 C92.1261074,61.9781005 93.0362597,60.7660929 93.7266457,58.7732312 C93.8992062,58.2757353 94.0481637,57.8451574 94.0583821,57.8165194 C94.0684565,57.7873057 94.1150867,57.7838519 94.1617169,57.8086044 C94.4625104,57.9683441 94.2179897,60.3478912 93.7355687,61.953348 C92.6658087,65.515689 90.1375599,68.9464965 87.3339914,70.6407456 C86.3799434,71.2175357 81.6350333,73.9067765 81.4990285,73.9485103 C81.4580112,73.9613183 81.4129641,73.9332559 81.3984282,73.8866291 Z M57.0420672,80.6043345 C56.7373878,80.5457632 56.4029169,80.3827135 56.2253192,80.2068559 C55.6794293,79.6648919 55.569762,78.7368182 55.9885702,78.2010423 L56.1667436,77.9728015 L55.8817813,77.8037076 C54.5594411,77.0199753 54.9395348,75.4089061 56.5631003,74.9125615 C57.6897088,74.5684733 58.5684865,74.895724 58.8315729,75.7568798 C58.9754932,76.2268889 58.9259846,76.8990911 58.7433497,76.9547842 C58.5594195,77.0110529 58.7089527,77.2133899 59.1238751,77.4702688 C59.7169709,77.8362312 59.9142857,78.276451 59.7991494,78.9735496 C59.6732191,79.7362711 59.1958353,80.2023947 58.2423629,80.4940997 C57.729143,80.6509612 57.4283494,80.678448 57.0420672,80.6043345 Z M58.413916,79.1263818 C58.724784,78.6058603 58.133847,77.9312116 57.5295254,78.1161356 C56.9161369,78.3033621 56.8633181,79.2461146 57.4536794,79.4652891 C57.7477087,79.5743727 58.2525813,79.3962125 58.413916,79.1263818 Z M57.5846469,76.7839634 C57.6599173,76.6580424 57.6891331,76.4493733 57.6492672,76.320718 C57.4817439,75.7709829 56.6305989,75.7827835 56.4692642,76.3369798 C56.2657608,77.0340784 57.2095905,77.4118414 57.5846469,76.7839634 Z M51.1413327,82.4767438 C51.091968,82.4504083 50.8057104,81.6239348 50.5049169,80.6397363 C50.1384957,79.4412562 49.9214638,78.8615879 49.8477766,78.8846134 C49.7870422,78.9031778 49.6111715,79.0937142 49.4570328,79.3091471 L49.176532,79.699718 L48.771828,79.4339168 C48.5497589,79.2871289 48.3484143,79.1095443 48.3253871,79.0393164 C48.3017841,78.9683689 48.5733618,78.517068 48.9285573,78.0364096 C49.5268342,77.2257662 49.613906,77.1499258 50.1215131,76.9947911 C50.5257854,76.8710287 50.6989215,76.8648406 50.7821075,76.9716216 C50.8439933,77.0509159 51.2189058,78.1762898 51.6152624,79.4726285 C52.0116191,80.7689672 52.3304027,81.9117542 52.3230627,82.012491 C52.313564,82.1461832 52.1673409,82.2384293 51.7709843,82.3593134 C51.4742205,82.4504083 51.1908413,82.5032231 51.1413327,82.4767438 Z M63.8519466,78.5164924 C63.8289193,78.4416593 63.9334055,78.0414464 64.0846658,77.6271304 C64.4591465,76.601198 64.4489282,76.5826337 63.558493,76.671426 C63.2161064,76.7052448 62.546445,76.3949754 62.2063612,76.0446992 C61.7548831,75.5792952 61.6621984,74.3965012 62.0293392,73.7820068 C62.4487231,73.0804469 63.6337633,72.5761873 64.5332655,72.7156358 C65.3035272,72.8353687 65.8128614,73.2974628 66.0494664,74.09242 C66.2591584,74.7967142 66.2142552,75.2019639 65.7565885,76.7294216 C65.3153287,78.2033449 65.3012245,78.2230605 64.546794,78.4540356 C64.0728643,78.5985209 63.8823137,78.615934 63.8519466,78.5164924 Z M64.6721486,75.0912973 C64.7829673,74.8827722 64.8116075,74.6427308 64.7502974,74.4414011 C64.631707,74.0529888 64.0976186,73.7382582 63.7422792,73.8467661 C63.4161557,73.9462078 63.094062,74.4189512 63.112052,74.7719617 C63.1273076,75.0733086 63.5169,75.5483546 63.7664579,75.5696532 C64.133023,75.6011694 64.505201,75.4044449 64.6721486,75.0912973 Z M72.1644983,75.9839693 C72.1182999,75.9205051 72.0171239,75.710253 71.9401265,75.5162627 L71.800092,75.1644035 L70.5796474,75.5056134 C69.3776246,75.8417865 69.3563244,75.8435134 69.2162899,75.6112431 C68.9329107,75.1402266 68.9998337,74.6135171 69.5783935,72.7814025 L70.164725,70.9241038 L70.9011655,70.665498 C71.7877148,70.3546531 71.7017944,70.2608239 72.3438231,72.2328187 L72.7945816,73.6185253 L73.0886109,73.5645592 C73.4153101,73.5044049 73.6520591,73.7786968 73.675662,74.2446765 C73.6851608,74.4357886 73.6087391,74.5504846 73.4153101,74.6348157 C73.2079209,74.7253349 73.1539507,74.8185884 73.1920896,75.0210694 C73.3286701,75.7495404 73.31802,75.7725659 72.7653658,75.9412281 C72.4444234,76.0396623 72.2167414,76.0559241 72.1644983,75.9839693 Z M71.2385148,73.2198954 C71.10251,72.7055621 70.9843514,72.4227795 70.9158453,72.4436464 C70.7612749,72.4908488 70.3001541,74.200784 70.4148586,74.3015208 C70.4672456,74.3475719 70.7218407,74.3048308 70.9816169,74.2069722 L71.4526683,74.0288119 L71.2385148,73.2198954 Z M31.0650191,80.9264044 C26.7694283,79.6329439 25.978442,79.3478588 24.5847173,78.5934841 C21.9289551,77.1561139 20.0748292,75.1081348 18.9443348,72.3637766 C18.2673334,70.7206155 18.2443062,70.0718705 18.8964093,71.0219624 C19.7583483,72.2777186 20.9692942,73.1889548 23.999969,74.8630565 C26.5197265,76.2543756 27.5923649,76.9514743 29.0907197,78.1706774 C29.6494185,78.625576 30.2111396,79.0408994 30.3392288,79.0937142 C30.6085037,79.205676 30.6203052,79.2219378 29.7799543,78.3180409 C28.7044375,77.1605751 28.2962793,76.419584 27.7503894,74.6353914 C27.3451097,73.3092634 27.2517054,72.8382469 27.1033235,71.3496448 C27.0083361,70.3939404 26.8154828,69.0432039 26.6748726,68.3482639 C26.5349821,67.6534678 26.4607192,67.0727921 26.5113791,67.0576816 C26.7789271,66.9755091 27.8020568,68.625434 28.7173903,70.6154175 C29.247449,71.7689977 29.7079941,72.9961158 30.4117646,75.1367728 L31.3787655,78.0745457 L31.8470823,78.39273 C32.1534887,78.6013991 32.4614783,78.9498045 32.7380932,79.4018249 C32.9703807,79.7813149 33.4762607,80.4451704 33.8619672,80.8763239 C34.6237377,81.7285572 34.6860552,81.8279988 34.4898917,81.8825406 C34.4185073,81.9028318 32.8769763,81.472254 31.0650191,80.9264044 Z M86.7155656,65.4352435 C86.6908113,65.3549418 86.7250644,64.893999 86.790836,64.411038 C86.8571833,63.928221 86.9039574,63.231698 86.8943147,62.863433 C86.8813619,62.3519779 86.9337489,62.1332351 87.1163838,61.9386692 C87.6723482,61.3450416 87.687028,61.4361365 86.2770403,56.5791837 C85.2235433,52.9483417 84.98737,52.0247291 84.9413155,51.3546855 C84.8620154,50.2055665 84.9120997,48.7215695 85.0329928,48.6360871 C85.0993401,48.5894604 85.2577964,48.8828923 85.4849027,49.4736417 C85.677756,49.9745914 86.3000676,51.2966899 86.868553,52.4125658 C87.7218568,54.0894018 87.9781789,54.69152 88.3458954,55.8855389 C88.7389419,57.1627376 88.7906093,57.4443689 88.7917607,58.3246646 C88.7923363,58.872241 88.7552049,59.5327866 88.7091504,59.7929754 C88.5909918,60.4597091 88.5718504,60.8633758 88.6635276,60.7593291 C88.7056963,60.7109754 89.0525443,59.7283599 89.4349407,58.5753553 C89.9588108,56.9929241 90.3973361,55.9536082 91.2243025,54.3334726 C92.9339324,50.9852693 93.4241251,49.5535115 93.5276038,47.6107304 C93.5788395,46.6461036 93.7075042,46.6590555 94.0280149,47.6612427 C94.4923019,49.1138674 94.6491751,51.1680346 94.4220688,52.8240037 C94.1471809,54.8326954 93.1177186,57.4240776 91.8595669,59.2769152 C91.4177314,59.9273871 87.8748441,64.3149064 86.8650989,65.4628741 C86.8004787,65.536412 86.7430544,65.5257627 86.7155656,65.4352435 Z M55.477509,72.3716916 C55.2954498,72.2749843 55.1194352,72.1057464 55.0857578,71.9960872 C55.0519365,71.886428 54.9024033,71.7138803 54.7528701,71.6132874 L54.4807167,71.4295147 L43.5338467,74.7462018 L32.5868329,78.0621694 L32.2337963,77.8750868 L31.8807597,77.6872846 L26.7160339,60.7935796 C22.4810335,46.9439967 21.5646927,43.8590042 21.6298886,43.6712021 C21.6922061,43.4918906 21.909238,43.3659696 22.6412169,43.0843383 C23.6318207,42.7031214 23.7409123,42.5913036 23.5958406,42.1027301 C23.4569575,41.6345918 23.4946646,41.0100237 23.6722623,40.8312878 C23.9539144,40.5479296 29.2840047,37.6916096 30.6928411,37.069344 C35.3123966,35.027553 40.5109436,33.3400677 43.05819,33.0549826 C44.3197958,32.9139511 45.9580412,32.9464747 47.0672353,33.1354281 C47.5731154,33.2214861 48.0820178,33.263076 48.197154,33.2276743 C48.3124342,33.1922725 48.8122696,32.7880301 49.3074996,32.3292459 C51.1459382,30.6259306 52.6581093,29.8350028 56.456887,28.5893203 C59.3314083,27.6471434 61.3884619,27.1322345 64.2966604,26.6273992 C67.2851666,26.1091803 72.1138384,25.6066476 72.9380702,25.7279635 C73.3663772,25.790996 73.6783965,26.1169515 73.850957,26.6825166 C73.9938699,27.1484963 74.2962466,27.2390155 75.1423544,27.0681947 C76.0019906,26.8944956 76.2683872,26.9275949 76.5095977,27.2390155 C76.619265,27.3801909 78.6424973,33.8634674 81.8098965,44.2215128 C86.6418784,60.026253 86.9258333,60.9914555 86.8184687,61.2494856 L86.7043399,61.5227701 L64.147559,68.4747605 L64.0245071,68.77841 C63.9570084,68.9459209 63.9295196,69.1724348 63.9626213,69.282094 C63.9964426,69.3921849 63.9446313,69.6306433 63.8479168,69.8126891 L63.6720461,70.1438253 L55.8086698,72.5475493 L55.477509,72.3716916 Z M55.4438317,67.6304422 C55.36741,67.3797515 54.0400325,67.2499449 52.8842082,67.3797515 C52.0487505,67.4735806 51.2858287,67.6675709 48.9567657,68.3792044 C45.8619024,69.3242595 44.2107042,69.9639382 41.9934672,71.0759285 C40.4148049,71.867432 39.7942203,72.2552686 39.7890392,72.4531445 C39.7863047,72.5628037 41.4773688,72.0753815 47.6394627,70.1916034 C54.6696841,68.0424557 55.4877274,67.7737763 55.4438317,67.6304422 Z M77.5507175,60.9318768 C77.4895514,60.732418 76.8968874,60.7863841 74.1552046,61.2411388 C70.7819994,61.8015232 68.2099988,62.3231959 67.0017874,62.6926122 C65.1067881,63.2715609 62.8837943,64.3767875 61.9235577,65.216069 C61.4068837,65.6675137 61.3434148,65.7725678 61.5277768,65.8710021 C61.6824911,65.9530306 77.5866976,61.0510341 77.5507175,60.9318768 Z M36.6622256,71.8612438 C38.0963919,71.0208111 40.5840552,69.7082106 41.9940429,69.0482407 C44.4029818,67.9211398 45.3137098,67.5759004 48.2145684,66.688841 C50.667403,65.9395031 51.3943447,65.7540035 52.2387254,65.662333 C53.4722667,65.5286409 55.1126709,65.5381389 56.1224161,65.6859342 C56.9476554,65.8062427 57.1911687,65.7686823 57.2091587,65.5179916 C57.2152034,65.4228672 55.1818966,58.6596864 52.6902035,50.4877734 C47.8261274,34.5356696 48.094251,35.3250144 47.4338005,35.02597 C46.7809778,34.7302356 44.7734328,34.6538195 42.9964481,34.8567322 C42.0675862,34.9629376 41.3941829,35.1395148 38.4505799,36.0462899 C34.6102092,37.2289399 33.1356012,37.8254456 29.3363917,39.7305224 C26.6563069,41.0746391 26.036298,41.4417528 25.792353,41.8268552 L25.5871226,42.1516594 L30.159904,57.2031762 C34.2245026,70.5828939 34.758591,72.2765673 34.9649728,72.4481076 C35.0926302,72.554313 35.2607292,72.6218067 35.3383022,72.5982055 C35.4158753,72.5740286 36.0117056,72.2428924 36.6622256,71.8612438 Z M37.0382894,67.3290953 C36.8376645,67.2818929 36.6239427,66.6209156 33.298663,55.7443635 C30.5978536,46.9108975 29.7923314,44.1720079 29.858103,44.0483894 C29.9923807,43.7959718 38.1885009,41.3152562 39.5591984,41.1117678 C41.3665501,40.8440958 42.7378233,41.0454255 44.0021636,41.764974 C45.2676552,42.4845226 45.9315598,43.2979003 46.5240799,44.8561546 C46.955841,45.9911705 47.1071013,47.082294 46.9660593,48.0463451 C46.8372506,48.9289434 46.213212,50.219094 45.6044289,50.8616508 C45.3581811,51.121264 45.1659036,51.3653348 45.177705,51.4028953 C45.1889308,51.4411752 45.4502902,51.4833408 45.757848,51.4974439 C46.570854,51.5334214 47.776187,51.9285974 48.4079974,52.3653634 C49.6893203,53.2518472 50.4420237,54.4149255 50.9006979,56.2155239 C51.4011089,58.179028 51.2790645,59.4591049 50.4391453,61.0426873 C49.6285859,62.5723037 48.3389156,63.6239958 46.1356389,64.5526452 C44.8111399,65.110871 37.3239713,67.3960133 37.0382894,67.3290953 Z M44.3079943,59.9701282 C45.7982896,59.116168 46.2267405,57.5410762 45.3721414,56.0603892 C44.5923809,54.7100844 43.1413759,54.5830121 40.082061,55.5954169 L38.7496464,56.0362123 L39.4945781,58.5714697 C39.9037437,59.9660988 40.2799515,61.1589664 40.3293162,61.2225745 C40.468775,61.4013103 43.4461993,60.4641703 44.3079943,59.9701282 Z M41.6471948,50.0937486 C42.2205735,49.4691805 42.3892482,48.8120887 42.190782,47.9761172 C42.1035663,47.6078522 41.9507229,47.1515145 41.8517057,46.9619855 C41.6038748,46.4880908 40.9701935,46.1250066 40.2354801,46.0362143 C39.6688657,45.9675693 39.4754367,46.0052737 37.8118613,46.5089577 L36.0039339,47.0563902 L37.3891673,51.785839 L39.3162608,51.1601196 C41.2148581,50.5428908 41.2491111,50.5272047 41.6471948,50.0937486 Z M59.729348,64.6657582 C60.0936104,64.3328951 60.7408203,63.8208643 61.1679759,63.5278641 C64.5642084,61.1989733 71.0237856,59.5045803 79.3469875,58.7586963 C81.3168253,58.5821191 81.4748499,58.5192305 81.4169939,57.9368279 C81.3702198,57.47128 72.4308949,28.3194896 72.2459572,28.0305189 C71.9743795,27.6067048 71.5482314,27.5678492 69.5097435,27.7837138 C64.3365264,28.3318658 61.6666599,28.8390037 57.8757978,29.9918644 C53.8450205,31.2185508 52.2837725,31.9628518 50.6843856,33.4215206 C49.8359751,34.1950353 49.5392113,34.6745425 49.5228044,35.2940738 C49.5154645,35.5757051 50.7372044,39.6844713 54.0108167,50.3910661 C58.1282341,63.8572735 58.5274692,65.1131735 58.7342827,65.236792 C58.8580542,65.3104737 58.9839845,65.3487537 59.013776,65.3211231 C59.0435675,65.2930607 59.3656613,64.9984775 59.729348,64.6657582 Z M60.7795348,60.0707211 C60.5789099,60.0240944 60.3657638,59.3623975 57.0376057,48.4786499 C54.0040525,38.5562192 53.5239342,36.9124824 53.6194973,36.7674214 C53.7032589,36.6399174 54.8687259,36.2621544 58.3688689,35.2277314 C62.3036514,34.0646531 63.1334961,33.8476373 63.836691,33.7992836 C67.0586359,33.5778066 69.4906021,34.9348752 70.7725007,37.6691597 C72.2966172,40.9222387 71.8327619,44.2017972 69.5683191,46.1772458 C69.3112773,46.4020328 69.1189997,46.6443767 69.1415952,46.7157559 C69.1634711,46.7871352 70.974277,48.6337846 73.1646009,50.8194853 C75.3549247,53.0050421 77.1549366,54.8669459 77.1645792,54.9574651 C77.1796909,55.097921 76.7924012,55.2458602 74.5042115,55.9710212 C72.4662993,56.616888 71.776489,56.8006607 71.6168814,56.7405065 C71.5016012,56.6973336 69.8656585,54.9748782 67.9805897,52.9129399 C66.0956649,50.8510015 64.4877867,49.1183286 64.4073352,49.0627794 C64.3055835,48.9924076 64.0273855,49.0430638 63.4865328,49.2314416 L62.7118095,49.5006967 L64.0717129,54.0450776 C65.112401,57.5230875 65.4074377,58.6175209 65.3287133,58.709767 C65.1741428,58.8902298 61.0308198,60.1297241 60.7795348,60.0707211 Z M65.566038,43.6172359 C66.1512181,43.1085151 66.5841305,42.2292267 66.5622546,41.5930019 C66.5398031,40.9104381 66.1287665,39.8598972 65.7206084,39.4393931 C65.2917258,38.9974463 64.3899208,38.714232 63.634339,38.7838843 C63.3116695,38.8136736 62.3289814,39.072855 61.4159507,39.3695969 L59.7765539,39.9020628 L60.5214857,42.4373202 C60.9313708,43.8313736 61.3103131,45.0282706 61.3637076,45.0967717 C61.442432,45.1973646 61.8100046,45.1064136 63.2807267,44.6217257 C64.9145105,44.0837912 65.1478054,43.9808958 65.566038,43.6172359 Z M25.4921352,74.2222266 C25.0990887,73.8939685 24.0123461,73.1231881 23.0774395,72.5088375 C20.3620942,70.7262279 19.5440509,69.9848051 18.4663753,68.3314264 C16.6729838,65.5797288 15.6571939,62.5154593 15.6351741,59.7918241 C15.6324396,59.4686029 15.6746083,59.2151779 15.7291541,59.2297128 C15.7836999,59.2438159 15.9933919,59.7018805 16.1957439,60.2472983 C16.6893907,61.5784632 17.3088239,62.4912825 19.4148104,64.9917137 C21.2474922,67.1683481 21.9030494,68.0582858 22.6069639,69.3231083 C23.0994593,70.2090164 23.6716866,71.1196771 23.6970166,71.0579398 C23.7065154,71.0347704 23.5507935,70.6345575 23.3501686,70.1680022 C22.4044679,67.9694935 22.4270634,66.0565017 23.4501932,61.5598988 C23.6554236,60.6593119 23.8510114,59.5457385 23.8854084,59.0846518 C23.9196614,58.6242846 23.9927729,58.2341454 24.0473187,58.2173079 C24.2102366,58.1672274 24.7437493,60.4985647 24.9669698,62.2361306 C25.2188304,64.1945978 25.2834507,65.4414316 25.2969792,68.6136334 L25.3076293,71.0933416 L25.8614348,72.9276148 C26.2088585,74.0794681 26.3763818,74.7719617 26.3106102,74.7899504 C26.2539056,74.8057805 25.8850377,74.549909 25.4921352,74.2222266 Z M89.0677999,53.6274516 C88.6130116,51.9398224 88.2414092,51.1937944 86.8797788,49.2341759 C84.8828839,46.3588598 83.4593676,43.8746904 82.4350865,41.4742764 C81.7665765,39.9086826 81.8638666,39.770961 82.8629617,40.8694239 C83.3003357,41.3500823 84.4583188,42.4636557 85.4365455,43.3439514 C87.9203229,45.5785814 88.8501923,46.9648636 89.3426878,49.1662505 C89.4512037,49.6502189 89.5659082,50.0380555 89.5984342,50.0285575 C89.6305285,50.0183399 89.6030397,49.1397711 89.5372681,48.0755588 C89.4585437,46.8062751 89.4663154,45.6296693 89.5602953,44.6543932 C89.6390198,43.8369861 89.7659575,42.5210756 89.8425232,41.7301479 C90.047034,39.6142434 89.9257091,37.950791 89.4500524,36.3666329 C89.203229,35.5447645 89.3881666,35.6689586 90.0808553,36.7900153 C91.9754228,39.8581703 92.7517292,43.7729462 92.1812289,47.3763015 C92.040043,48.2645123 89.7603446,54.7522499 89.5461912,54.8731341 C89.448901,54.9282515 89.3471493,54.6617307 89.0677999,53.6274516 Z M20.9754827,64.6926694 C20.7652151,64.3261313 20.1535536,63.4334594 19.6160111,62.7100252 C16.7797727,58.891381 16.3795302,58.1846404 15.7858587,55.9462688 C15.3434475,54.2760527 15.254073,53.1793167 15.4305194,51.57386 C15.5457996,50.5225995 15.8781117,49.1235093 16.2170441,48.2622097 C16.4559519,47.6546229 16.4750933,47.7057108 16.4183887,48.8030224 C16.3767957,49.6092046 16.4071629,49.7794498 16.8416584,51.1651564 C17.0991319,51.9864491 17.7136718,53.6015478 18.2071747,54.7545525 C19.1000566,56.840092 19.7020754,58.7598476 20.0400004,60.5991576 C20.2086751,61.516582 20.3711612,61.3018687 20.2682581,60.2983863 C20.1585908,59.2291371 20.2390423,58.2751597 20.519543,57.3195992 C20.7528379,56.5252176 23.0195835,52.0984109 23.2259653,52.0353784 C23.3141885,52.0084673 23.4501932,52.3276591 23.7043565,53.1591694 L24.059552,54.3210964 L23.7386096,55.5791551 C23.5620193,56.2706413 23.0526852,58.0087828 22.6063882,59.4416918 C21.7759677,62.1067557 21.4786283,63.5166392 21.5049657,64.6617288 C21.513457,65.0181931 21.4836655,65.3211231 21.4387623,65.3352262 C21.394291,65.3487537 21.1857504,65.059783 20.9754827,64.6926694 Z M87.9001741,43.9731246 C87.2069097,42.8717836 85.8137607,41.533855 83.7769999,40.0138806 C82.7150116,39.2212259 81.5237828,38.319056 81.1301607,38.0092183 L80.4151643,37.4459557 L80.0108921,36.1227059 C79.7882473,35.3946667 79.6336768,34.7909655 79.6679299,34.7803161 C79.7967386,34.7408849 82.1573202,35.832584 83.1541126,36.391961 C84.3768599,37.0788421 85.1846848,37.8181063 85.9779738,38.9767233 C86.2956061,39.4399687 86.5733723,39.8289567 86.5952482,39.8407573 C86.6176998,39.8525579 86.3023703,38.8366992 85.8947879,37.5831017 C85.3837267,36.0107442 85.0324171,34.7223205 84.7619908,33.42886 C84.100245,30.2616951 83.5920622,28.8939772 82.6267884,27.6815379 C82.4204066,27.4223565 82.2455434,27.1885032 82.237196,27.1625994 C82.1129927,26.7544715 83.9501361,28.2076718 84.9890971,29.3375069 C86.4524792,30.9307313 87.4374701,32.8077457 88.0147347,35.1062716 C88.3977067,36.6302755 88.4700987,37.706864 88.3251709,39.7169949 C88.2244266,41.1117678 88.2503323,43.0849139 88.3830269,44.107968 C88.411667,44.3317476 88.3987142,44.5261697 88.3543867,44.5396972 C88.3093396,44.5538003 88.1046849,44.2985045 87.9001741,43.9731246 Z M19.8223929,55.9816706 C19.7026511,55.7321311 18.2729463,51.4502416 17.9160239,50.2724845 C17.3256626,48.3252422 17.2329779,47.3842165 17.4854142,45.910725 C17.7850563,44.1630855 18.5603553,42.6408085 19.7189141,41.5270913 C20.3715929,40.8997888 20.5077416,40.9318807 20.2096825,41.6423629 C19.5693809,43.170828 19.507639,43.9298078 19.7409339,47.3869508 C19.8359214,48.7935244 19.8999659,50.3252993 19.8831272,50.791279 C19.8668642,51.2574025 19.8746359,51.709279 19.9011173,51.795337 C19.9275986,51.8819707 20.0928192,51.4934145 20.2682581,50.9324544 C20.5994188,49.8750058 21.7473276,47.6956372 21.9457937,47.7478764 C22.0082552,47.7641382 22.2403987,48.3712933 22.4618921,49.0970299 L22.8655887,50.4158185 L22.2150687,51.333243 C21.3627724,52.5351769 20.5560988,54.0827819 20.2400497,55.1199392 C20.0287746,55.8153109 19.8848543,56.1120528 19.8223929,55.9816706 Z M83.7259081,35.4654703 C83.2682414,35.0472687 81.4715397,34.0731438 80.2492242,33.5806848 L79.0906653,33.1135539 L78.7032317,31.8464288 C78.4902296,31.1499058 78.3457336,30.5456289 78.3817137,30.5046147 C78.4958425,30.3746642 79.9064059,31.0773753 80.6912036,31.6553167 C81.1055503,31.9599736 81.4562842,32.1864875 81.470964,32.1584251 C81.4860757,32.1309383 81.2707708,31.7767765 80.9930046,31.3719585 C80.7159579,30.9667088 79.9344704,29.7384394 79.2581886,28.6415595 C77.276981,25.4312217 76.9284059,25.008415 75.6741401,24.2905933 C75.301962,24.0776069 75.0181511,23.8650523 75.0433371,23.8178499 C75.1102601,23.6925045 76.0176779,23.7768356 76.7069125,23.9729846 C77.5417945,24.2107234 79.3667046,25.2248552 80.0085893,25.8072578 C80.7287668,26.4610396 81.5259416,27.5595024 81.966194,28.5044136 C82.3416822,29.3117471 84.1913466,35.6544237 84.0625379,35.6942867 C84.0265578,35.704936 83.8754414,35.6021845 83.7259081,35.4654703 Z M20.8478254,47.1385627 C20.7859396,46.9366573 20.7719793,44.6054639 20.830411,44.3170689 C20.8894184,44.0265151 20.9242471,44.0944405 21.2509463,45.1501622 L21.6068613,46.2992812 L21.3397451,46.7310104 C21.0760831,47.1575587 20.8984853,47.3049223 20.8478254,47.1385627 Z M78.028677,29.2504415 C77.9358484,29.1897116 77.8302109,28.9806108 77.7942308,28.7860449 L77.7273078,28.4324587 L78.0201857,28.7624437 C78.1809448,28.9440578 78.3271678,29.1407823 78.3451579,29.1992097 C78.3923638,29.3521857 78.2248405,29.3796725 78.028677,29.2504415 Z M20.8938799,43.0247596 C20.9271255,42.2433299 21.4943156,40.5523908 22.028404,39.6440327 C22.6738868,38.5444186 23.4732205,37.6836946 25.1722002,36.2587006 C25.9277821,35.6252101 26.5669324,35.0995079 26.5934137,35.0917368 C26.7524457,35.0433831 26.6878255,35.3969693 26.4882079,35.6662243 C26.3589675,35.8410746 25.9670723,36.7308684 25.6180655,37.6438316 C24.9433669,39.4084525 24.9613569,39.3854269 23.8937557,39.9227858 C23.0859308,40.3297625 22.7046858,41.0251342 22.9133703,41.7110079 C23.0285066,42.0887709 22.8683232,42.472722 22.5967455,42.4698438 C22.3027162,42.4665339 21.2683606,43.0151177 21.1294775,43.2483953 C20.9282769,43.5851441 20.872004,43.5323292 20.8938799,43.0247596 Z M75.2435304,26.4368628 C74.4902512,26.5784699 74.3716609,26.5386069 74.2378149,26.1012653 C73.9927186,25.2991126 73.3787543,25.0146031 72.0672082,25.0933217 C70.4109727,25.1933389 70.5138758,25.2142058 69.7650582,24.627342 C69.3826618,24.3271464 68.4579735,23.7497806 67.7107391,23.3439552 C66.9630728,22.9381298 66.3699771,22.5710162 66.3930043,22.528275 C66.4390588,22.4410657 69.626175,22.6868635 70.5751859,22.8509206 C72.3757734,23.1617655 74.0258202,24.0213382 75.4172422,25.374953 C76.0137921,25.9546213 76.1942682,26.2608612 75.9642835,26.302595 C75.8905963,26.3159786 75.5661998,26.3761329 75.2435304,26.4368628 Z M47.1622228,32.4226433 C45.1602907,32.0589835 42.3453525,32.2831948 39.5040769,33.0331083 L38.8777355,33.1983167 L38.4095626,31.7705884 C38.0575334,30.6968781 37.9675832,30.3112 38.047459,30.2179465 C38.1695034,30.0756198 55.5370921,24.7403112 55.8148583,24.7600268 C55.9688531,24.7706761 56.0638406,24.9898506 56.4214826,26.1581096 C56.7323506,27.1761269 56.8138095,27.5651149 56.7284647,27.6241179 C56.6642763,27.668586 55.7682281,28.0187183 54.7371827,28.4020938 C51.9284331,29.4471661 50.3217063,30.3696274 48.8291083,31.7947653 C48.4480072,32.1584251 48.0650352,32.4754582 47.9779633,32.4990594 C47.8907476,32.5226606 47.5237507,32.4884101 47.1622228,32.4226433 Z M28.1653118,33.0027434 C28.0786718,32.8897742 27.823501,32.4839489 27.5969703,32.1015808 C27.3523057,31.6872647 27.1066337,31.3916741 26.9903461,31.369656 C26.8824058,31.3500842 26.4595678,31.4011722 26.0504022,31.4837764 C25.0445429,31.686833 24.8820568,31.6845304 24.9731584,31.4675146 C25.0130243,31.3725342 25.3122347,30.9970737 25.6382143,30.63327 C25.9643379,30.2690345 26.2347642,29.9137214 26.2398014,29.8434935 C26.2448386,29.7732655 26.0649382,29.3672962 25.8401346,28.9411796 C25.1828503,27.6966484 25.1952275,27.6803866 26.4353892,28.1991811 C26.9071601,28.3959057 27.3646829,28.5359298 27.4524743,28.5090187 C27.5401218,28.4819637 27.9033768,28.1693918 28.2591479,27.813647 C28.6156386,27.4583339 28.9410425,27.15526 28.9832112,27.1407252 C29.1243971,27.0923715 29.1462729,27.3891133 29.0659654,28.2413466 C29.0220697,28.7063189 29.0096925,29.1649592 29.0389084,29.2605152 C29.0681242,29.3566469 29.4757066,29.6090645 29.9440235,29.8221948 C30.412916,30.0351812 30.8154612,30.2723444 30.8390641,30.3489044 C30.8721658,30.4579879 30.649665,30.555127 29.8180932,30.7945928 L28.7549535,31.1015522 L28.5964972,32.1375582 C28.5088497,32.7075846 28.4115595,33.1814792 28.3794653,33.1916968 C28.3479467,33.2011949 28.2512323,33.1162881 28.1653118,33.0027434 Z M64.7576373,21.9363743 C64.6750271,21.8801056 64.3270276,21.5186044 63.9840654,21.1330703 L63.3606025,20.4315105 L62.2974628,20.8288452 C61.7127144,21.0475879 61.2242487,21.1932246 61.2118716,21.152642 C61.1989188,21.1116278 61.4204122,20.63946 61.7037914,20.1025329 L62.2187384,19.1266811 L61.543608,18.2997759 C61.1725813,17.8450212 60.8892022,17.4351664 60.9139565,17.3896909 C60.9387108,17.3436398 61.3867348,17.3914178 61.9095975,17.4953206 C62.4323162,17.5993673 62.9412186,17.6577947 63.0400918,17.6258467 C63.1385334,17.5931792 63.4573169,17.1912394 63.7478921,16.7314479 C64.0386112,16.2720881 64.3247249,15.9219557 64.3837323,15.9528963 C64.4427396,15.9842686 64.5321141,16.3935479 64.5827741,16.8618301 C64.7205059,18.1328406 64.6789129,18.0800258 65.7830699,18.3846826 C66.3255057,18.5342048 66.7814453,18.6972545 66.7972766,18.7473351 C66.8303783,18.8562748 66.6239965,18.9771589 65.6633281,19.4133493 C65.2625099,19.5949633 64.9183964,19.7748505 64.8975279,19.8131304 C64.8773791,19.8512665 64.8886049,20.2891838 64.9222822,20.7866796 C64.9971208,21.8851425 64.9689124,22.080284 64.7576373,21.9363743 Z M34.6889336,30.5108028 C34.639425,30.4843234 34.4943533,30.1218148 34.3668398,29.7051962 L34.1351281,28.9479433 L57.6347312,21.8211027 L58.1080852,23.3692833 L46.4437724,26.9641479 C40.0286665,28.9411796 34.7384422,30.5371383 34.6889336,30.5108028 Z M34.8750226,27.6786597 C34.4455643,27.2970111 34.2801998,26.6842436 34.4544873,26.1204053 C34.6500751,25.4884978 35.6772347,24.2838296 37.5296335,22.5141718 C39.4360025,20.6934261 40.7071071,19.177913 41.4739147,17.811922 L42.0485887,16.7887239 L42.6792477,16.7382116 C43.6406357,16.6606443 45.3912828,16.6976291 46.0569145,16.8095908 C46.8327891,16.9393974 47.0941484,17.0653184 47.1813642,17.3498279 C47.3016816,17.7427014 47.1599201,17.9175517 44.147811,21.0862997 C42.0377947,23.3050996 41.3953342,24.2832539 41.2491111,25.4981397 L41.1742726,26.1198297 L38.1784265,27.0355272 L35.1820047,27.9518003 L34.8750226,27.6786597 Z M42.1250104,25.7211998 C41.9439586,25.5621795 42.122132,24.8583171 42.5190643,24.163521 C43.0200511,23.2876865 43.6889929,22.4872607 45.3514169,20.7771816 C47.2127388,18.8613116 47.8812489,18.0282183 48.0032933,17.4717194 C48.0594223,17.2142649 48.1297993,16.9956661 48.1595908,16.9865998 C48.6008506,16.8517564 51.4173719,16.9090324 52.0324875,17.0653184 C52.5963675,17.2092281 52.6845907,17.5656925 52.2669338,18.015842 C51.5669052,18.7709363 49.9017467,20.8845382 49.3593109,21.7064066 C49.0432618,22.1864894 48.6946867,22.8795586 48.585739,23.2466723 L48.3866971,23.9151329 L45.3013326,24.8577415 C43.4506608,25.4238823 42.1801319,25.7689778 42.1250104,25.7211998 Z M49.3479412,23.5097392 C49.0837034,23.2776128 50.6640928,20.8520146 52.2427552,19.0659512 C52.6716378,18.5802559 53.1118902,18.0287939 53.2198304,17.8417113 C53.4030411,17.5235269 53.4457854,17.5009331 53.8510651,17.5076968 C55.1453409,17.5291394 56.4591898,17.968064 57.0455213,18.5752191 C57.6324285,19.1817985 57.6835202,19.8316948 57.2163547,20.7355917 L56.9223255,21.3056181 L53.1821233,22.4489807 C50.8310404,23.167378 49.4070924,23.5615467 49.3479412,23.5097392 Z M93.6630329,87.7013859 C90.5598222,85.3808417 89.6974514,84.6916581 89.7260916,84.5566708 C89.7823645,84.2908696 91.1821338,82.4987619 91.7235622,81.9989635 C92.8451335,80.9641088 94.0369379,80.7554397 95.2237052,81.386196 C95.590846,81.5813375 96.0883787,81.9629861 96.3295892,82.2345437 C97.1453297,83.1535511 97.3066644,84.5769621 96.7286803,85.7574535 C96.4510579,86.3247456 94.9650803,88.3416402 94.7841724,88.3967576 C94.7099095,88.4197831 94.2050369,88.1066356 93.6630329,87.7013859 Z M95.1039634,85.7636416 C95.5587518,85.1295754 95.7043992,84.3195076 95.4548413,83.8129454 C95.0320033,82.9535166 93.7293801,82.4138552 92.999704,82.7955038 C92.5555657,83.0276301 91.7134878,83.996862 91.7763809,84.202509 C91.803438,84.290294 92.0709859,84.5471728 92.3717794,84.7742623 C94.1061636,86.0835529 94.4861134,86.3437416 94.6087335,86.3061812 C94.6834282,86.2830117 94.9066486,86.0390848 95.1039634,85.7636416 Z M33.3278788,102.262171 C32.9046091,102.073793 32.6161927,101.873183 32.5750314,101.738195 C32.5386196,101.617887 32.4316868,100.585766 32.3378507,99.4441305 C32.2440146,98.3029265 32.1231215,97.3466465 32.0703028,97.320311 C32.0169083,97.293256 31.6070231,98.0060408 31.1595748,98.9033179 C30.7114068,99.8010266 30.2869857,100.553243 30.2161769,100.574541 C30.0395866,100.627932 29.0423625,100.150152 28.9928538,99.9888288 C28.9512609,99.8526902 31.6283234,94.4740647 31.7998764,94.3487194 C31.9314196,94.2525877 33.3357944,94.9974644 33.3969606,95.1959158 C33.4240176,95.2831251 33.5223152,96.2864636 33.6157195,97.4259407 C33.7089799,98.5648422 33.8287216,99.5188197 33.8816843,99.5452991 C33.9345031,99.5716346 34.34482,98.8588497 34.7939955,97.961141 C35.2433148,97.0634322 35.6565101,96.3156773 35.7120634,96.2994155 C35.8425991,96.2607038 36.9382648,96.8110145 36.9759719,96.9340573 C37.0169892,97.0696203 34.2504083,102.501636 34.1217435,102.537614 C34.0625922,102.553876 33.7050941,102.430257 33.3278788,102.262171 Z M96.5410082,80.4047317 C95.0989262,79.5457347 93.8930176,78.8058948 93.8609233,78.760995 C93.7901145,78.6615534 94.4642375,77.5466848 94.6249965,77.4978994 C94.7340881,77.4646563 99.6768887,80.3165151 99.9641538,80.5784307 C100.123186,80.7234917 99.5846358,81.8544782 99.3242839,81.9236987 C99.235485,81.9472999 97.9835219,81.2637288 96.5410082,80.4047317 Z M100.263796,78.8588536 C100.214287,78.8329498 100.09397,78.5495916 99.9961041,78.230256 L99.8185064,77.6495803 L100.23458,77.3899672 C101.035065,76.8907444 101.285199,75.8912914 100.680877,75.6073576 C100.335756,75.4454591 100.23458,75.5011522 99.3737925,76.3292087 C98.552439,77.1189852 98.1589608,77.3145585 97.5186591,77.2505187 C97.0087493,77.1998624 96.2953361,76.7412222 96.0760015,76.3230206 C95.4873673,75.1980783 96.0810387,73.4133101 97.3027786,72.6369172 C97.7541128,72.350249 97.9160232,72.4616352 98.0908865,73.1777299 C98.2185438,73.7022808 98.2094768,73.7409925 97.9227875,73.9164184 C97.2842129,74.3071333 97.0345111,75.3212651 97.5140537,75.576417 C97.7906686,75.7232049 98.1117549,75.5454764 98.7665925,74.8827722 C99.5890973,74.0512618 100.041151,73.8287774 100.741036,73.9129646 C101.796836,74.0400369 102.564795,75.0592055 102.432676,76.1576683 C102.344452,76.8901687 101.883476,77.8052906 101.345357,78.3157383 C100.913596,78.7255932 100.449885,78.9582952 100.263796,78.8588536 Z M26.448342,97.6108647 C25.6882986,97.6868491 25.1244187,97.5350243 24.2552837,97.0218423 C22.5833609,96.034046 22.0463941,94.1076706 22.9797176,92.443067 C23.4383917,91.6240768 23.9516117,91.1765176 24.8005979,90.8550233 C25.4267953,90.6178601 25.6124526,90.5946906 26.2392257,90.6734092 C28.0747859,90.9045282 29.6202027,92.5904305 29.5786097,94.3173471 C29.5398951,95.9323018 28.1012673,97.4456564 26.448342,97.6108647 Z M27.2781868,95.4533703 C28.3322594,94.4055637 28.0405329,92.8219812 26.701354,92.3262123 C25.7563729,91.975936 24.7359776,92.5223612 24.2945739,93.6152116 C24.0225644,94.2885651 24.2204549,95.1756246 24.7336749,95.5883576 C25.5573311,96.2510619 26.5276421,96.1993983 27.2781868,95.4533703 Z M101.592756,71.2450225 C100.386272,70.8397727 99.3501895,70.5244665 99.2900308,70.5440382 C99.2304478,70.5643295 99.0685374,70.9184913 98.9308056,71.3310805 C98.7936495,71.7442452 98.6412379,72.0939458 98.5928806,72.1084807 C98.3793028,72.1742475 97.4387833,71.7600753 97.4494334,71.6047967 C97.4821034,71.1376658 98.9611728,66.9176574 99.1079716,66.8743406 C99.1995049,66.8468538 99.5037526,66.9232699 99.7842533,67.0435784 L100.294163,67.2628968 L100.046764,67.995829 C99.911335,68.3989201 99.8179307,68.7867568 99.8393748,68.8577042 C99.860675,68.9279322 100.892872,69.3174958 102.131882,69.7233212 C103.371612,70.1287148 104.422231,70.4929503 104.466702,70.5322377 C104.599397,70.648085 104.182747,71.8082851 103.975934,71.8988043 C103.866842,71.9465823 102.847598,71.6666779 101.592756,71.2450225 Z M19.6807752,93.0372702 C19.1859771,92.6927503 18.7778189,92.2289293 18.8509305,92.093942 C19.0207565,91.7792115 23.0257721,87.6441098 23.1770324,87.6277041 C23.2691414,87.6176304 23.5542476,87.8166575 23.8094184,88.0700825 C24.1990108,88.4563362 24.2574425,88.558656 24.1732491,88.7048683 C24.1175519,88.8004243 23.1685411,89.8279397 22.0643841,90.9888593 C20.9608029,92.1490594 20.0315091,93.1260625 19.9999906,93.1593056 C19.9691916,93.1929805 19.8252713,93.1378631 19.6807752,93.0372702 Z M102.299981,66.5634956 C100.683756,66.2481894 99.3298968,65.9733219 99.2923336,65.9530306 C99.1714405,65.8889908 99.7043775,63.2226316 99.9517766,62.6560591 C100.082744,62.3558634 100.322228,62.0005504 100.484714,61.865707 C101.43761,61.0752109 102.857097,61.3990078 103.378232,62.5251013 L103.617284,63.0411615 L105.028279,62.5301381 C106.166689,62.1181246 106.447334,62.0461697 106.478133,62.1562607 C106.499577,62.2321011 106.452947,62.6183548 106.374222,63.0146821 L106.230878,63.7353819 L104.904652,64.1727236 C102.966764,64.811251 102.889767,65.0800743 104.552191,65.3971074 C105.153634,65.5118034 105.682685,65.6534106 105.727732,65.7112623 C105.869925,65.8928764 105.614611,67.0278923 105.419023,67.0851683 C105.32015,67.114382 103.916926,66.8793774 102.299981,66.5634956 Z M102.358413,63.8820259 C102.358988,63.375032 102.114468,63.0512352 101.710771,63.0241802 C101.478628,63.0090696 101.359462,63.0591502 101.213814,63.2338566 C100.977785,63.5177905 100.727076,64.5218485 100.86308,64.6415814 C100.918202,64.6893594 101.214966,64.7752735 101.522523,64.8321179 L102.082949,64.9355889 L102.220249,64.6066113 C102.296095,64.4262925 102.358413,64.1001931 102.358413,63.8820259 Z M16.6729838,90.0134393 C14.7925204,88.7211301 14.0684571,86.8379276 14.8256221,85.2104527 C15.4693778,83.8287755 17.0204075,82.9742396 18.4642165,83.2065099 C18.8352432,83.2666642 19.3401158,83.4397876 19.5862196,83.592044 C20.5532204,84.1897011 21.4246581,85.4707853 21.5349011,86.456279 C21.5854172,86.9087312 21.4797796,86.9700367 20.687642,86.9447086 L20.1630523,86.9278712 L19.9769633,86.2870412 C19.7239513,85.4162435 19.218647,84.9367364 18.3984449,84.7883655 C18.0166242,84.7191449 17.1244619,85.0227944 16.8017925,85.3313368 C15.8078785,86.28258 15.8381018,87.4462339 16.8815244,88.3697026 C17.2329779,88.6812671 17.3521439,88.6677396 17.7867834,88.2696853 C18.1419788,87.9447372 18.1414031,87.9257411 17.7771407,87.4860969 C17.6293345,87.3083684 17.4954886,87.1195589 17.4792256,87.066744 C17.4629626,87.0133535 17.6355231,86.8098652 17.8620537,86.6135723 C18.2061673,86.3156792 18.3023061,86.2735137 18.4483852,86.3561179 C18.6789456,86.4870757 19.8842786,87.9184017 19.9527847,88.142613 C19.9916432,88.270261 19.6823584,88.5934822 18.8346675,89.3113038 C18.1897604,89.8571533 17.5736373,90.331048 17.4656971,90.3637155 C17.3527196,90.3985417 17.0170973,90.2507464 16.6729838,90.0134393 Z M103.551944,60.1449785 C101.897436,60.0015006 100.470609,59.8442072 100.381235,59.7947023 C100.172119,59.678855 100.258183,58.4679987 100.484138,58.3482658 C100.620143,58.2768866 106.143662,58.709767 106.589527,58.8271973 C106.746976,58.8687872 106.768276,58.9571478 106.750862,59.5097611 C106.740212,59.8587421 106.693006,60.2028302 106.6458,60.2747851 C106.590103,60.3591162 105.502209,60.3134968 103.551944,60.1449785 Z M103.794306,57.0283259 C103.025196,57.0463146 102.540616,56.9188106 101.851381,56.5151439 C100.718584,55.8522957 100.120451,54.4003907 100.363821,52.9017149 C100.485289,52.152377 100.881646,51.3191398 101.15711,51.2349526 C101.233531,51.2117832 101.50626,51.4057735 101.763158,51.6661061 L102.230324,52.1394252 L102.012716,52.5773424 C101.892974,52.8179595 101.773808,53.13269 101.748478,53.2760241 C101.681555,53.6470233 101.949247,54.4447148 102.239247,54.7416006 C102.778372,55.2936382 103.966867,55.4543854 104.693808,55.0737442 C105.533728,54.6348196 105.87669,53.3783439 105.372393,52.5874161 C105.243008,52.385079 105.121108,52.1657606 105.100239,52.0999939 C105.056919,51.9616967 105.741117,51.188182 105.967791,51.1191053 C106.255632,51.0308887 106.737909,51.8077133 106.95379,52.7059977 C107.499104,54.9770369 106.039176,56.9743598 103.794306,57.0283259 Z M12.1013537,84.3711712 C11.1242785,82.8983992 9.94585861,80.8774751 10.0021315,80.7718454 C10.1054663,80.5772795 15.2326289,77.3814765 15.3411448,77.4439333 C15.4587277,77.5112831 17.4415185,80.667223 17.5129029,80.9005007 C17.5831361,81.131044 16.7489737,81.7038047 16.5172619,81.5846475 C16.4307658,81.5397476 16.0934165,81.0770779 15.767293,80.5559808 C15.4413134,80.0348838 15.1157655,79.5687602 15.0438054,79.5204065 C14.8807436,79.4103156 14.1448788,79.8302442 14.130199,80.0415036 C14.1251617,80.1186392 14.3680993,80.5677814 14.6710516,81.0387979 C15.4103705,82.1900756 15.4254821,82.2608792 14.9937211,82.5357467 C14.3393152,82.9535166 14.3303922,82.9484798 13.5889145,81.7246716 C12.9699131,80.7026248 12.9006874,80.6633375 12.3621374,81.0190823 C12.1327284,81.1703314 11.9433292,81.3502185 11.9416021,81.4188635 C11.940019,81.4867888 12.250887,82.0417047 12.6325638,82.6510184 C13.4280116,83.9226046 13.4297386,83.9866445 12.6747324,84.3351938 C12.2828373,84.5168078 12.2013784,84.5218447 12.1013537,84.3711712 Z M8.88329464,79.0184495 C8.84285302,78.9830477 8.67648109,78.635074 8.51399501,78.2449348 L8.21881437,77.5360355 L9.06995934,76.4027465 C9.88238973,75.3218407 10.0437244,74.9108346 9.66420648,74.887809 C9.58490636,74.8833478 9.07845064,75.0839579 8.53817363,75.3346487 C7.95745501,75.603472 7.50597686,75.7636435 7.43459236,75.7253635 C7.36824508,75.6899617 7.20187315,75.3876074 7.06514882,75.0524417 C6.82911944,74.4729173 6.82854375,74.4380911 7.04715877,74.3149044 C7.68702866,73.9551302 12.5420379,71.8067021 12.621338,71.848292 C12.7523055,71.916793 13.7164279,74.0214725 13.9160455,74.6746787 C14.0301743,75.0479805 14.0514745,75.3891904 13.9835441,75.7450792 C13.7456438,76.9839979 12.1828127,77.6557684 11.2113503,76.9367955 C11.0281397,76.8008008 10.832408,76.7035178 10.776279,76.7209309 C10.7205819,76.7377683 10.3342996,77.2623192 9.91836982,77.8863118 C9.18077801,78.9915384 9.03455493,79.1517099 8.88329464,79.0184495 Z M12.5690949,75.2098789 C12.637601,74.9727157 12.605075,74.771386 12.435249,74.3847006 C12.3110457,74.103645 12.1541725,73.8438879 12.0860982,73.8073349 C12.0119792,73.7680475 11.7493246,73.8461905 11.4362978,74.0001739 L10.9105567,74.258204 L11.0741942,74.781028 C11.296839,75.4915102 11.6475729,75.777171 12.1209269,75.6326857 C12.3886188,75.5505132 12.5004449,75.4454591 12.5690949,75.2098789 Z M100.667924,50.1556298 C100.508892,50.160091 100.349285,50.0790698 100.298625,49.9695545 C100.157439,49.6631707 99.4918072,45.2934962 99.5654944,45.1557747 C99.6043529,45.0828124 99.8506006,45.0035182 100.163627,44.9635113 L100.696133,44.8955859 L100.920936,45.7534317 C101.044708,46.2250238 101.162147,46.6101262 101.18244,46.6089749 C101.202588,46.6078236 102.309624,46.4352759 103.64247,46.2261751 L106.066089,45.8455339 L106.221811,46.4729802 C106.307875,46.8175001 106.339394,47.1745401 106.292044,47.2666423 C106.222962,47.3993271 105.729891,47.5101375 103.859502,47.8124918 C102.569256,48.021017 101.483665,48.2256566 101.447109,48.2668148 C101.410697,48.3084047 101.418469,48.5726229 101.464092,48.8542543 C101.640538,49.9458094 101.638379,49.9604882 101.278003,50.0583468 C101.096375,50.1077078 100.821487,50.1516003 100.667924,50.1556298 Z M7.21640911,67.4298321 C6.56200326,67.3443497 6.14319503,66.9683136 5.93076859,66.2756762 C5.80023283,65.8495595 5.80195987,65.6595987 5.93911597,65.3375288 C6.27416255,64.5510622 6.91115404,64.1810703 7.69883013,64.315482 C8.9720935,64.5324978 9.44890163,66.095789 8.51788086,66.9996859 C8.05460124,67.4488282 7.86016485,67.5135875 7.21640911,67.4298321 Z M100.32453,38.966074 C99.0337087,38.7979875 98.5187617,37.16821 99.4693556,36.2610032 C100.605031,35.1766435 102.48276,36.3047517 102.090289,37.836095 C101.985227,38.2453742 101.420196,38.8473485 101.028301,38.9670814 C100.914748,39.0020515 100.597691,39.0014758 100.32453,38.966074 Z M94.0274392,31.3990135 C93.785653,31.0340585 93.5900652,30.6928486 93.5933754,30.6394581 C93.5962538,30.5866432 93.9941936,29.6771338 94.477766,28.618534 C95.3030053,26.8107402 95.5026228,26.2148101 95.2068665,26.4424752 C94.4383318,27.0343759 92.1878492,28.4701631 92.1030802,28.4223851 C91.9164155,28.317331 91.3159797,27.3424866 91.3755628,27.2407424 C91.4970315,27.0322172 96.5605813,23.7256038 96.6663628,23.785758 C96.7281046,23.8205842 96.966005,24.1320048 97.1948383,24.4778198 C97.6956812,25.2344971 97.7446141,24.9927288 96.5779957,27.51561 C96.1036342,28.5409667 95.7916149,29.3493075 95.869188,29.3510344 C95.9456097,29.353337 96.6539856,28.916571 97.4438205,28.3807951 C98.2330798,27.8444437 98.9532572,27.4117071 99.0437831,27.4178953 C99.2215247,27.4301276 99.8701738,28.444835 99.7931764,28.589896 C99.7196331,28.7276176 94.949393,31.9093174 94.694654,31.9897629 C94.5019446,32.0510684 94.4012004,31.9617005 94.0274392,31.3990135 Z M6.14261935,58.0464871 C4.51286527,58.0598707 3.14231174,58.051524 3.09726467,58.0279228 C2.9680242,57.9592778 2.94888279,55.3296157 3.07366174,54.7168481 C3.13554749,54.4116156 3.31141816,54.0079489 3.4644055,53.8191393 C4.01648397,53.140605 5.09200077,53.0984395 5.67329508,53.7325057 C6.00100172,54.0899774 6.04993464,54.0911287 6.21400385,53.7414281 C6.64518922,52.8224207 8.18787149,52.7177983 8.88674873,53.5599579 C9.36010277,54.1311356 9.46127878,54.7044719 9.46401326,56.8350552 C9.46516463,57.6809564 9.42414733,57.944743 9.28583987,57.9784178 C9.18754227,58.002019 7.77294911,58.0329596 6.14261935,58.0464871 Z M8.1603827,55.9619549 C8.1822586,55.2857232 7.96249222,54.7089331 7.64198159,54.6048864 C7.25742641,54.4801166 7.0579528,54.5628647 6.88193821,54.9214877 C6.68908493,55.3122026 6.68289636,56.309353 6.87243946,56.4105215 C7.0438486,56.5016164 7.79770341,56.5112583 7.99732094,56.4246247 C8.07993123,56.3892229 8.15304277,56.1806977 8.1603827,55.9619549 Z M5.53038217,55.7837947 C5.51181644,55.2598195 5.48375197,55.1795178 5.25275981,54.9872545 C5.04983211,54.8185923 4.92836333,54.8011792 4.67650271,54.9056577 C4.42406641,55.01028 4.34303925,55.1261273 4.29252321,55.4526585 C4.25769448,55.6808993 4.25539176,56.006423 4.28806168,56.1756609 C4.3391534,56.4420377 4.40161484,56.4870815 4.74961425,56.5078045 C5.43323593,56.5482431 5.55398511,56.4364253 5.53038217,55.7837947 Z M6.31186969,50.7902716 C4.67981288,50.5647651 3.30191942,50.3573912 3.24910065,50.3293288 C3.14331919,50.2730601 3.20520494,49.5484747 3.44022688,48.0952744 C3.68086171,46.6118531 4.04454844,46.0468636 4.9345519,45.7781842 C5.62652096,45.5689394 6.29675805,45.7325648 6.77011209,46.2267507 C6.97519859,46.4408884 7.18273174,46.7455452 7.23108898,46.9041337 C7.33615084,47.2470706 7.29009633,47.2571443 8.8759547,46.5470938 C9.52935311,46.2548131 10.075243,46.0120374 10.0892033,46.0068567 C10.2421906,45.9546175 10.1112231,47.5730261 9.94700997,47.7602526 C9.89807705,47.8165213 9.29591429,48.0699463 8.60898245,48.3240909 C7.37774382,48.7794212 7.09954578,48.9728359 7.28952065,49.240364 C7.33111363,49.2982157 7.86635342,49.4134874 8.47916629,49.4960916 C9.09183523,49.5788397 9.62880207,49.7103731 9.67154641,49.7879405 C9.78222117,49.9891262 9.56475751,51.1347915 9.40846001,51.1707689 C9.33707551,51.1870307 7.94335081,51.0162099 6.31186969,50.7902716 Z M6.15341338,48.5034024 C6.23372093,47.8339344 6.08246064,47.4853851 5.64292788,47.3285235 C5.35566286,47.2262037 5.26110719,47.2385799 5.07674521,47.4016296 C4.87554456,47.5797898 4.59892964,48.6304747 4.68153992,48.9020323 C4.71982274,49.026802 5.61198501,49.1604941 5.90097708,49.0846537 C6.02748307,49.0509788 6.11066903,48.8598667 6.15341338,48.5034024 Z M89.9110292,25.606072 C89.3252734,24.9832308 89.3049806,24.880911 89.6446327,24.2900177 C89.7496945,24.1073962 89.8098532,23.871816 89.777759,23.7671937 C89.7458087,23.6627152 89.3798192,23.2207685 88.9643212,22.7863051 L88.2098907,21.9953773 L87.6775293,22.1758401 C87.3845074,22.2747061 87.0865923,22.3696865 87.0146321,22.3860922 C86.8443744,22.4259552 85.8413934,21.3781486 85.921701,21.2443125 C85.9835867,21.1414171 90.8886802,19.2672809 91.8736711,18.9703952 L92.3976851,18.8125262 L92.8737736,19.3313207 C93.1751429,19.6595788 93.3335992,19.9108451 93.3061104,20.0171944 C93.2206217,20.3425743 90.596378,26.1349402 90.5238421,26.1569584 C90.4839762,26.1693346 90.2079369,25.9213782 89.9110292,25.606072 Z M91.3378556,20.7479679 C91.3154041,20.6754374 91.263161,20.628235 91.2209923,20.6427699 C90.9072459,20.7530048 89.6788857,21.3449054 89.6164243,21.415709 C89.5732482,21.4652139 89.694573,21.6671193 89.889729,21.8706076 C90.5075791,22.5164744 90.4957776,22.5187769 90.9584816,21.6603555 C91.1888981,21.2313607 91.3598754,20.8210741 91.3378556,20.7479679 Z M7.57289982,43.7768318 C5.95825738,43.3681282 4.58424976,43.0056196 4.51962953,42.9719448 C4.34591766,42.8796986 4.6736243,41.5659469 4.88446762,41.5086708 C5.20598569,41.4208859 10.808805,42.9235911 10.9004823,43.1220426 C10.9875541,43.3108521 10.7261948,44.4588199 10.5867359,44.4975316 C10.5439916,44.5099079 9.18797403,44.1855354 7.57289982,43.7768318 Z M83.6758239,19.612952 C83.4160476,19.4111906 83.1844798,19.1851085 83.1614525,19.1104193 C83.138857,19.0355863 83.8011785,18.1361506 84.6337577,17.1119451 C85.466337,16.0871641 86.1313929,15.188304 86.1112441,15.1146222 C86.091527,15.0405087 85.838515,14.7886667 85.5495229,14.5542378 C85.2606748,14.3198089 85.0065114,14.0696938 84.9846356,13.9983146 C84.9318168,13.8240399 85.5630515,12.999869 85.7367633,13.0172821 C85.9408424,13.0375734 89.5438884,15.9865712 89.6030397,16.1809932 C89.6508212,16.3372792 89.1082415,17.1092109 88.9076165,17.1703725 C88.8575323,17.1856269 88.5668131,16.9927879 88.2615581,16.7420972 C87.956303,16.4908308 87.6353606,16.2805787 87.5481449,16.2743906 C87.4616488,16.2682025 86.7229056,17.0810046 85.9065893,18.0800258 C85.0902731,19.0789031 84.3605969,19.9148746 84.2851826,19.9379002 C84.2099123,19.9609257 83.9356001,19.8147134 83.6758239,19.612952 Z M8.52234239,39.8665171 C6.96857826,39.2527422 5.66653082,38.696819 5.62767233,38.6304766 C5.52030774,38.4454087 6.61208754,35.8242372 7.03377418,35.2552182 C7.76057196,34.2743296 8.78600448,33.8207262 9.88958575,33.9921226 C11.7870317,34.2872815 12.9474615,35.8151709 12.680921,37.6680084 C12.5639138,38.4803787 11.6723272,40.8980619 11.4705508,40.9510207 C11.4024765,40.9684338 10.0756748,40.4810116 8.52234239,39.8665171 Z M11.1113256,38.2645142 C11.3844865,37.388104 11.3467793,36.9024088 10.9685566,36.4161378 C10.3573269,35.6313982 9.21618242,35.3873273 8.47240203,35.8826645 C8.06640271,36.1536465 7.35701929,37.3480971 7.44020526,37.620806 C7.49748556,37.8086082 10.6766862,39.057025 10.8172963,38.946934 C10.8763037,38.900739 11.0089983,38.5939235 11.1113256,38.2645142 Z M79.7439198,16.7448315 C79.4278707,16.5504094 79.1597471,16.3587217 79.1479456,16.3192904 C79.1355685,16.2800031 79.8433688,15.1478654 80.7209951,13.8043243 C81.5979018,12.4602076 82.379965,11.2605762 82.4575381,11.1385408 C82.5908083,10.9305913 82.6380142,10.9390819 83.20578,11.2779893 C83.5392434,11.4770165 83.829243,11.6961909 83.8506871,11.7654115 C83.8934314,11.9054357 80.6602607,16.9073055 80.4511444,17.0243041 C80.3780329,17.0653184 80.059825,16.9393974 79.7439198,16.7448315 Z M76.9520089,15.0202175 L76.2240597,14.627344 L76.1689382,13.2207704 C76.1166951,11.8862957 76.1020153,11.8087283 75.8805218,11.6946079 C75.6607555,11.5810632 75.6190186,11.6315755 75.1332874,12.6064199 C74.8506278,13.173568 74.557606,13.656529 74.4823356,13.6784033 C74.3091994,13.7294913 73.1971269,13.1954423 73.2061938,13.0656358 C73.2218812,12.8412805 75.9327649,7.48064375 76.0486208,7.44524196 C76.2830671,7.3732871 78.8359263,8.73035569 79.1951515,9.11819236 C79.9108674,9.89012406 79.9574976,10.900802 79.3127344,11.6630917 C78.9651668,12.0739539 78.8786706,12.1223076 78.2770836,12.244343 L77.6210946,12.3776034 L77.681829,13.0099427 C77.8313622,14.569924 77.8594267,15.285587 77.7727866,15.3468925 C77.7216949,15.3834456 77.3522514,15.236082 76.9520089,15.0202175 Z M78.084806,10.7096899 C78.3631479,10.3538011 78.1741805,9.92883577 77.5799334,9.57309096 C77.3050455,9.40888998 76.9982073,9.29923078 76.8980387,9.32959573 C76.7974384,9.36053632 76.6018507,9.62806447 76.4629675,9.92495021 L76.2099555,10.4646116 L76.5308979,10.6528455 C76.9262471,10.8845402 77.5350302,11.0526267 77.7470249,10.988443 C77.833521,10.9621075 77.9859327,10.8367621 78.084806,10.7096899 Z M13.4084384,32.9600022 C12.4886434,32.9516554 11.5717268,32.5524499 10.8335593,31.8396651 C10.5367956,31.5535726 10.4292871,31.3359811 10.1785778,30.5164153 C9.9245584,29.684905 9.89476688,29.4556568 9.98241438,29.0053633 C10.1903793,27.9405753 11.1169385,26.6684135 12.0338551,26.1884746 C12.4503606,25.9703075 12.6337151,26.1142172 12.7977843,26.7892976 L12.9316303,27.3391767 L12.4379834,27.6848478 C11.6245456,28.2542985 11.3395833,28.9631978 11.5924514,29.7889517 C11.6701684,30.0436719 11.8230118,30.3680444 11.9321034,30.5090759 C12.1733139,30.8210721 12.8816899,31.2315026 13.3229497,31.3141068 C13.7096637,31.3872129 14.5238211,31.1566696 14.7890663,30.8992151 C15.0971998,30.601322 15.5318393,29.7529743 15.4738394,29.5641647 C15.4446235,29.468033 15.2366586,29.2829651 15.0111354,29.1531586 L14.6019699,28.9175784 L14.2961391,29.3601007 C14.1280402,29.6034521 13.9431025,29.8170141 13.8851026,29.8350028 C13.8272466,29.8524159 13.5833016,29.7316756 13.3432425,29.5657477 C12.9850247,29.3185108 12.9204045,29.2285673 12.9838733,29.0676762 C13.102032,28.7658975 14.1684818,27.0395566 14.2522434,27.0136529 C14.292685,27.0012766 14.9689668,27.3840765 15.7554915,27.8647349 L17.1851963,28.7376912 L17.0586903,29.4129156 C16.8923184,30.3011263 16.249714,31.4899645 15.633591,32.0510684 C15.0033637,32.6249804 14.1650277,32.9673416 13.4084384,32.9600022 Z M71.1108574,12.3174492 C70.3154096,12.0661828 70.3570026,12.1284957 70.264174,11.0609735 C70.2349581,10.7288299 70.1968192,10.7052287 69.1354066,10.3622918 C68.5309412,10.1671503 67.9867783,10.0232405 67.9254682,10.0429562 C67.8648778,10.0626718 67.6528831,10.2802633 67.4549926,10.5259172 C67.2571021,10.771571 67.0630975,10.9822549 67.0238072,10.9941994 C66.9849487,11.006 66.6268749,10.9058388 66.2287912,10.7721467 C65.616554,10.5657802 65.5199834,10.4994378 65.6025937,10.3437275 C65.7801914,10.0098569 69.8279514,5.28386199 69.9747501,5.23881825 C70.162998,5.18096655 71.2154875,5.51483708 71.3369563,5.67054739 C71.4684995,5.83863393 72.0238881,12.1998749 71.9244392,12.3921383 C71.8631291,12.5102882 71.6652386,12.4922995 71.1108574,12.3174492 Z M70.1799806,8.75956936 C70.1686109,8.4993806 70.1529235,8.11024874 70.1450079,7.89553545 C70.1264422,7.39357837 70.1084522,7.34249042 69.9685616,7.3850877 C69.8149986,7.43185835 68.8160474,8.73827072 68.8497247,8.84836165 C68.8767818,8.93672221 69.9943233,9.29189138 70.1264422,9.25433095 C70.1670277,9.24253035 70.1912064,9.01990203 70.1799806,8.75956936 Z M16.2907313,25.3581156 C15.0455324,24.3058477 13.9818171,23.3725933 13.9272713,23.283801 C13.8525766,23.1623412 14.1476133,22.7408296 15.1208028,21.5776074 C15.8324889,20.7276767 16.4785474,20.0125893 16.5572718,19.9889881 C16.6814751,19.950852 17.46397,20.5669295 17.5185158,20.7468166 C17.5297416,20.7833697 17.1666306,21.2566888 16.7118423,21.7986527 C16.2564783,22.3404728 15.9005632,22.8379687 15.920856,22.9037354 C15.9725234,23.0723976 16.5814504,23.592919 16.688815,23.5603954 C16.737604,23.545141 17.1233105,23.1224782 17.5461485,22.6209528 C17.9688426,22.1195714 18.3500876,21.6979159 18.3932637,21.6845323 C18.4905539,21.6553187 19.2298728,22.2814698 19.2759273,22.4327189 C19.294493,22.4928732 18.9544092,22.9588528 18.5203454,23.4693006 C18.0868573,23.9791727 17.7446147,24.4383886 17.760302,24.4896204 C17.8075079,24.6441795 18.5760426,25.2406852 18.6845585,25.2074421 C18.7406875,25.1906047 19.1544585,24.7335474 19.6047853,24.1921591 C20.0551121,23.6514903 20.4857218,23.1893962 20.5617117,23.1663706 C20.702178,23.1236295 21.4674025,23.6942315 21.5258342,23.8853436 C21.5708812,24.0314119 18.9487963,27.1592895 18.7300374,27.2210268 C18.6159085,27.2531186 17.7564162,26.5964586 16.2907313,25.3581156 Z M63.6175003,10.2307583 L62.9484146,10.1092985 L62.6381223,9.33348129 C62.4672888,8.90750854 62.2643611,8.35316833 62.1877955,8.10247761 C62.0293392,7.58469047 61.7830915,7.2918342 61.5621737,7.35932786 C61.473231,7.38623898 61.3478763,7.85682373 61.2557673,8.50887864 C61.1702786,9.11603372 61.0594599,9.65842942 61.0100953,9.71469812 C60.9605867,9.77096682 60.6205029,9.7692399 60.2539377,9.71023692 C59.6917848,9.61971771 59.5860034,9.56575157 59.5759289,9.3632706 C59.5517503,8.89513231 60.4775899,3.28884165 60.5839471,3.25617415 C60.6435301,3.23818543 61.3478763,3.32928028 62.1485052,3.45793556 C63.7714951,3.71999515 64.461881,4.02350073 64.8526248,4.64749324 C65.3675718,5.46878597 65.0398651,6.75663398 64.2111718,7.16922313 C63.5287014,7.50942569 63.5399272,7.48021202 63.8266166,8.16479052 C64.6969029,10.2442859 64.6951759,10.2391051 64.4837569,10.2976764 C64.375241,10.3280413 63.9856486,10.2976764 63.6175003,10.2307583 Z M63.4285329,5.88540459 C63.7051478,5.36589053 63.3925528,5.00280632 62.5408321,4.85486714 C62.2131255,4.79759107 61.9078704,4.79312987 61.8628233,4.84421782 C61.7482627,4.97460002 61.6065012,5.83244581 61.6672356,6.03032167 C61.7268186,6.2248876 62.5926435,6.36088228 63.0008016,6.23942248 C63.1576748,6.19337137 63.3498084,6.0337755 63.4285329,5.88540459 Z M23.2832456,21.5725706 C22.8891917,21.3427468 18.4444994,18.3053884 18.2589861,18.1396044 C18.174073,18.0631883 18.3112291,17.8798474 18.7278786,17.5127337 C19.0516994,17.2272168 19.3670289,17.0074667 19.4289146,17.0237285 C19.4906564,17.0399903 20.2154393,17.5560505 21.0395273,18.1711206 C21.8631835,18.7860468 22.5742939,19.2779302 22.619341,19.2644027 C22.7406659,19.227274 22.6249539,18.9220415 21.9103893,17.3964546 C21.0170757,15.4873484 21.0350658,15.6115425 21.5826827,15.1192274 C21.8384292,14.8892596 22.1408058,14.6739707 22.2549347,14.6413032 C22.3972719,14.6002889 22.9538119,14.9279713 24.0214131,15.6801874 C25.3594406,16.6235156 25.8204175,16.8877338 25.7546459,16.6740279 C25.7467303,16.648268 25.4043438,15.9432544 24.9934512,15.1068511 C23.9618301,13.0077841 23.9825546,13.1342807 24.5841417,12.614191 C24.8601809,12.3758765 25.1435601,12.1818862 25.2143689,12.1836131 C25.291942,12.1853401 25.8519361,13.329854 26.6445054,15.1084341 C27.8442255,17.8011288 27.9376298,18.0473583 27.8291139,18.2440828 C27.6592879,18.5516179 26.9874676,19.0968918 26.7946144,19.0833643 C26.7040885,19.0771762 25.9024521,18.5819829 25.0125926,17.9827428 C24.1231648,17.3835028 23.3596673,16.9016931 23.3163473,16.9119106 C23.192144,16.9417 23.4608433,17.6831228 24.1608719,19.244831 C24.5154917,20.0363344 24.794985,20.7311305 24.7820322,20.7884066 C24.7578535,20.8963388 23.8572,21.7075579 23.7132796,21.7514504 C23.6689521,21.764834 23.4749475,21.6845323 23.2832456,21.5725706 Z M29.9389863,16.6026487 C29.8788275,16.5250813 29.6708626,15.0072656 29.4780094,13.2286855 C29.223846,10.8918796 29.1626799,9.94740012 29.2570916,9.82090349 C29.4257663,9.59554088 30.4388216,9.14078619 30.582742,9.22554901 C30.6429007,9.26152643 31.8426208,10.2054302 33.2491544,11.3230331 C34.8289681,12.5793648 35.7801377,13.4035358 35.7391204,13.4811031 C35.701989,13.5501798 35.3990366,13.7644613 35.0655732,13.9571564 C34.3920259,14.3457127 34.4438372,14.3546351 33.5932679,13.7104952 L33.2952089,13.4849887 L32.3407291,14.0229232 C31.8161394,14.3186576 31.3455199,14.6227388 31.2955795,14.6992988 C31.2449195,14.7757149 31.2437682,15.0764862 31.2927011,15.3687668 C31.3410583,15.6604718 31.3383238,15.9477156 31.2859368,16.0068625 C31.2342694,16.0664411 30.9346273,16.2558263 30.6198734,16.4289496 C30.1217651,16.7026659 30.0345494,16.7246841 29.9389863,16.6026487 Z M31.8318267,12.8300556 C32.0264071,12.7064371 32.1686004,12.5489999 32.1467245,12.4804989 C32.0910273,12.303346 30.9137588,11.3112325 30.8002056,11.3460586 C30.6833423,11.3814604 30.698454,11.6810804 30.8603644,12.5406531 C30.9835602,13.192708 30.9919076,13.2056599 31.2319667,13.1319781 C31.366964,13.0903882 31.6368147,12.9543936 31.8318267,12.8300556 Z M52.4843974,9.49595536 L51.7935797,9.54042346 L51.0177051,8.4104444 C50.2638503,7.31313284 49.9170023,7.00847598 49.7595534,7.30536172 C49.7195435,7.37947522 49.7309132,7.90014056 49.783732,8.46225189 C49.8371265,9.02378759 49.8483523,9.54373338 49.8084863,9.61856643 C49.7263078,9.77312546 48.5665976,9.91703517 48.4226772,9.79053854 C48.3203499,9.7011706 47.7249514,3.67610269 47.8025244,3.51650682 C47.8564946,3.40454506 50.3104805,3.14262938 50.920415,3.18364365 C51.4403992,3.2184698 52.0582493,3.46469932 52.3342885,3.74690627 C52.6447247,4.064515 52.9213396,4.95042319 52.8426152,5.37495684 C52.7604367,5.81848657 52.497926,6.23841511 52.0965321,6.56782444 L51.7586071,6.84542628 L52.6216975,8.01023149 C53.0966346,8.6504858 53.4716911,9.22454164 53.4558598,9.2846959 C53.4193041,9.42299313 53.334535,9.44141357 52.4843974,9.49595536 Z M51.1627768,5.54405075 C51.536538,5.02237804 51.073978,4.47379422 50.2778106,4.49451722 C49.4812114,4.51538413 49.404214,4.58115087 49.4570328,5.19607707 C49.4835142,5.5018852 49.5183429,5.79704402 49.5357572,5.85331272 C49.6189432,6.12587772 50.9238691,5.87806519 51.1627768,5.54405075 Z M56.2505052,7.6785196 C55.8131313,7.66009916 55.3972015,7.61390414 55.325817,7.57634371 C55.1598768,7.48798314 55.1441895,6.62236622 55.3066756,6.49586959 C55.4331816,6.3968597 57.3631535,6.46377772 57.4856297,6.57113437 C57.5267909,6.60768743 57.553704,6.83592824 57.5452127,7.07870392 C57.5262153,7.63189285 57.3277491,7.72413898 56.2505052,7.6785196 Z M37.6994595,12.7132009 C37.6528294,12.6462829 37.2350286,11.6191992 36.7707415,10.4303611 C36.3063105,9.24137907 35.8875023,8.23458673 35.8397207,8.19299682 C35.7919392,8.15083128 35.4052252,8.24077485 34.9800845,8.39245568 L34.2070883,8.66789887 L33.965446,8.1868087 C33.7871287,7.83149562 33.7489898,7.66168216 33.8192229,7.53633681 C33.880533,7.4266776 34.7164224,7.05409536 36.1726085,6.48737891 C38.7148176,5.497424 38.589463,5.50591468 38.8372939,6.30921869 C39.0092787,6.86341499 38.9548768,6.9332112 38.1643223,7.1777138 C37.281227,7.45042271 37.2756141,7.308096 38.2706794,9.86537159 C38.7518052,11.1021317 39.120673,12.1555507 39.0903058,12.2066387 C39.059363,12.2578706 38.7529565,12.4203446 38.4095626,12.5669886 C37.937216,12.7683183 37.7635041,12.8042957 37.6994595,12.7132009 Z M43.784556,10.8553265 C43.0307012,11.0284499 42.3662209,11.1447289 42.3076453,11.1139322 C42.2497894,11.0829917 41.9220827,9.88667022 41.5796962,8.45548814 C41.2373097,7.02430605 40.9129132,5.70551745 40.8589431,5.52505467 C40.6751568,4.91343839 40.654864,4.92523899 42.7856048,4.4186768 C43.851479,4.16568353 44.7981871,3.9875233 44.888713,4.02350073 C45.0539335,4.08811619 45.2665039,4.9712901 45.1636008,5.16355347 C45.1382708,5.21018022 44.5975621,5.37265428 43.9611463,5.52447903 C43.3241548,5.67615987 42.7558133,5.83417273 42.696806,5.87576264 C42.5730345,5.96340365 42.7091831,6.74929459 42.8726766,6.89277257 C42.9390239,6.95119992 43.3905021,6.88370626 44.0095035,6.72295911 C45.2676552,6.39570843 45.4189155,6.41484842 45.5706076,6.91910805 C45.7696494,7.57965363 45.7309349,7.61447978 44.4339246,7.93712535 C43.10151,8.26883724 43.0357384,8.33071842 43.2988248,9.01141135 C43.4506608,9.40442878 43.4995937,9.44486741 43.7969332,9.41838802 C43.9785606,9.40270186 44.4592546,9.2936183 44.8662614,9.17676361 C45.2726925,9.05976502 45.7613021,8.94852281 45.9524283,8.92938282 C46.298125,8.89513231 46.3004277,8.89786659 46.4465069,9.48415476 L46.5933056,10.0727455 L45.8748552,10.3065988 C45.4796499,10.435398 44.5389865,10.6822031 43.784556,10.8553265 Z" id="Fill-3" fill="#FFFFFF" mask="url(#mask-2)"></path>
                    </g>
                </g>
            </g>
        </g>
    </g>
</svg>