{
  "bufferViews": [
    {
      "buffer": 0,
      "byteOffset": 0,
      "byteLength": 712800,
      "target": 34962,
      "byteStride": 12
    },
    {
      "buffer": 0,
      "byteOffset": 712800,
      "byteLength": 237600,
      "target": 34963
    },
    {
      "buffer": 0,
      "byteOffset": 950400,
      "byteLength": 712800,
      "target": 34962,
      "byteStride": 12
    }
  ],
  "accessors": [
    {
      "bufferView": 0,
      "componentType": 5126,
      "count": 59400,
      "max": [
        22.5,
        8.221,
        17.737
      ],
      "min": [
        -22.363,
        1.5,
        -17.5
      ],
      "type": "VEC3"
    },
    {
      "bufferView": 1,
      "componentType": 5125,
      "count": 59400,
      "max": [
        59399
      ],
      "min": [
        0
      ],
      "type": "SCALAR"
    },
    {
      "bufferView": 2,
      "componentType": 5126,
      "count": 59400,
      "max": [
        1,
        1,
        1
      ],
      "min": [
        0.8313725490196079,
        0.6784313725490196,
        0.21176470588235294
      ],
      "type": "VEC3"
    }
  ],
  "asset": {
    "version": "2.0",
    "generator": "Autodesk.Tinkercad"
  },
  "materials": [
    {
      "pbrMetallicRoughness": {
        "metallicFactor": 0.5,
        "roughnessFactor": 0.5
      },
      "name": "lambert2SG.001"
    }
  ],
  "meshes": [
    {
      "primitives": [
        {
          "mode": 4,
          "attributes": {
            "POSITION": 0,
            "COLOR_0": 2
          },
          "indices": 1,
          "material": 0
        }
      ]
    }
  ],
  "scenes": [
    {
      "nodes": [
        1
      ],
      "name": "Tinkercad GLTF Scene"
    }
  ],
  "scene": 0,
  "nodes": [
    {
      "name": "Mesh_Mesh_head_geo.001_lambert2SG.001",
      "mesh": 0
    },
    {
      "matrix": [
        1,
        0,
        0,
        0,
        0,
        2.220446049250313e-16,
        -1,
        0,
        0,
        1,
        2.220446049250313e-16,
        0,
        0,
        0,
        0,
        1
      ],
      "children": [
        0
      ]
    }
  ],
  "buffers": [
    {
      "uri": "code logo-3d_data.bin",
      "byteLength": 1663200
    }
  ]
}